<svg width="29" height="29" viewBox="0 0 29 29" fill="none" xmlns="http://www.w3.org/2000/svg">
<path d="M6.96777 19.8142L13.7617 23.6111C14.377 23.9539 14.9395 23.9539 15.5547 23.6111L22.3486 19.8142C23.2012 19.3484 23.623 18.8474 23.623 17.6082V10.4802C23.623 9.54858 23.2715 8.95093 22.4805 8.51147L16.3018 5.04858C15.2207 4.44214 14.1045 4.44214 13.0146 5.04858L6.83594 8.51147C6.05371 8.95093 5.70215 9.54858 5.70215 10.4802V17.6082C5.70215 18.8474 6.12402 19.3484 6.96777 19.8142ZM14.6582 13.2839L8.18945 9.67163L13.7266 6.55151C14.3594 6.19116 14.957 6.18237 15.5986 6.55151L21.1357 9.67163L14.6582 13.2839ZM7.93457 18.4519C7.45117 18.1882 7.28418 17.907 7.28418 17.4412V11.0603L13.832 14.7517V21.7742L7.93457 18.4519ZM21.3906 18.4519L15.4844 21.7742V14.7517L22.0322 11.0603V17.4412C22.0322 17.907 21.8652 18.1882 21.3906 18.4519Z" fill="black"/>
</svg>
