<svg width="146" height="50" viewBox="0 0 146 50" fill="none" xmlns="http://www.w3.org/2000/svg">
<path d="M28.4095 15.463C28.9604 11.4078 30.7117 7.61027 33.438 4.55899C34.7887 3.06534 36.4489 1.88434 38.3027 1.09831C40.1565 0.312293 42.1593 -0.0598652 44.1716 0.00782466C51.0741 0.101555 60.0899 5.16302 61.9326 12.172C63.6192 8.67271 72.9578 11.1305 75.7063 13.0989C79.6416 15.8483 81.9528 21.2118 84.7013 25.0964C86.3311 23.5149 88.316 22.3471 90.4898 21.6908C91.9934 21.1151 93.6048 20.8755 95.2109 20.9889C96.8169 21.1022 98.3787 21.5658 99.7867 22.3469C102.384 23.8872 104.486 26.1385 105.846 28.8352C107.449 27.9982 109.245 27.6028 111.051 27.6896C113.777 27.9125 116.328 29.1235 118.224 31.0951C118.672 31.5221 120.119 33.3446 120.119 33.3446C120.119 33.3446 122.389 32.7302 123.128 32.574C125.707 32.0692 128.38 32.4355 130.728 33.6154C133.556 34.7404 136.534 35.4422 139.567 35.6983C140.91 35.8545 144.658 35.5213 145.376 37.0314C146.792 40.0203 141.087 40.2598 139.619 40.3327C136.558 40.4786 134.257 39.3955 131.384 38.8643C130.228 42.5198 125.606 42.3532 122.597 41.4888L117.485 39.9891C117.485 39.9891 115.674 41.1347 114.487 41.9678C111.459 43.8822 107.978 44.9602 104.399 45.0922C102.676 45.2139 100.945 45.0947 99.2558 44.7381C96.8967 44.2495 94.6065 43.473 92.4366 42.4261C91.6454 42.0199 90.3544 41.5096 90.3544 41.5096C90.3544 41.5096 87.8142 43.9362 86.7835 44.6339C85.256 45.7167 83.648 46.6811 81.9737 47.5188C73.4055 51.8616 58.9968 50.6952 55.1968 40.2286C53.6595 42.8417 51.3849 44.9424 48.6586 46.2671C45.9322 47.5919 42.8755 48.0816 39.8719 47.675C35.8117 47.1647 32.0117 43.7383 32.1574 39.4684C29.3985 43.2592 20.0704 44.9047 16.0413 42.6552C13.4282 41.1972 11.0129 35.4692 14.4068 33.6779C9.49288 35.0318 -0.959678 33.7924 0.0710025 27.023C0.903875 21.5762 6.62988 20.7743 10.3778 21.8158C10.0655 11.8908 22.1213 8.65188 28.4095 15.463Z" fill="#EFEFFD"/>
</svg>
