<svg width="22" height="20" viewBox="0 0 22 20" fill="none" xmlns="http://www.w3.org/2000/svg">
<path d="M0.250977 9.7146C0.250977 10.1716 0.602539 10.5671 1.16504 10.5671C1.4375 10.5671 1.68359 10.4177 1.90332 10.2419L10.6221 2.92065C10.8682 2.70972 11.1494 2.70972 11.3955 2.92065L20.1055 10.2419C20.3164 10.4177 20.5625 10.5671 20.835 10.5671C21.3535 10.5671 21.749 10.2419 21.749 9.73218C21.749 9.43335 21.6348 9.19604 21.4062 9.00269L18.9365 6.92847V3.27222C18.9365 2.87671 18.6816 2.63062 18.2861 2.63062H17.0732C16.6865 2.63062 16.4229 2.87671 16.4229 3.27222V4.8103L12.2568 1.31226C11.4922 0.670654 10.5254 0.670654 9.76074 1.31226L0.602539 9.00269C0.365234 9.19604 0.250977 9.45972 0.250977 9.7146ZM3.10742 17.616C3.10742 18.8816 3.89844 19.6462 5.20801 19.6462H16.8008C18.1016 19.6462 18.9014 18.8816 18.9014 17.616V10.9363L11.5449 4.77515C11.2021 4.47632 10.7891 4.48511 10.4551 4.77515L3.10742 10.9363V17.616ZM13.3115 17.9939H8.69727V12.3689C8.69727 11.9558 8.96973 11.6921 9.38281 11.6921H12.6348C13.0479 11.6921 13.3115 11.9558 13.3115 12.3689V17.9939Z" fill="black"/>
</svg>
