<svg width="30" height="29" viewBox="0 0 30 29" fill="none" xmlns="http://www.w3.org/2000/svg">
<path d="M14.8329 20.7326C15.2334 20.7326 15.7887 19.2124 15.7887 16.7546V11.0197C17.3271 10.601 18.4468 9.19001 18.4468 7.52417C18.4468 5.52152 16.8447 3.89209 14.8329 3.89209C12.8303 3.89209 11.2281 5.52152 11.2281 7.52417C11.2281 9.18091 12.3387 10.5919 13.8771 11.0106V16.7546C13.8771 19.2033 14.4415 20.7326 14.8329 20.7326ZM13.8134 7.72443C13.158 7.72443 12.5754 7.15095 12.5754 6.47733C12.5754 5.81281 13.158 5.24843 13.8134 5.24843C14.4961 5.24843 15.0514 5.81281 15.0514 6.47733C15.0514 7.15095 14.4961 7.72443 13.8134 7.72443ZM14.8329 24.3191C20.6224 24.3191 24.0906 22.3711 24.0906 20.1318C24.0906 17.6831 20.3402 16.0992 17.3453 15.9717V17.6011C19.3844 17.6922 22.0151 18.6298 22.0151 19.9497C22.0151 21.5154 18.993 22.5987 14.8329 22.5987C10.6729 22.5987 7.65977 21.5245 7.65977 19.9497C7.65977 18.6298 10.2905 17.6922 12.3205 17.6011V15.9717C9.32561 16.0992 5.5752 17.6831 5.5752 20.1318C5.5752 22.3711 9.04342 24.3191 14.8329 24.3191Z" fill="black"/>
</svg>
