<svg width="349" height="63" viewBox="0 0 349 63" fill="none" xmlns="http://www.w3.org/2000/svg">
<path d="M13.6641 21.196C13.0107 21.196 12.4414 21.0373 11.9561 20.72C11.4894 20.384 11.0787 19.9547 10.7241 19.432C10.3881 18.9093 10.0894 18.34 9.82808 17.724C9.58541 17.0893 9.35208 16.4827 9.12808 15.904C8.79208 14.9707 8.48408 14.1587 8.20408 13.468C7.92408 12.7587 7.61608 12.1613 7.28008 11.676C6.92541 13.0947 6.63608 14.4573 6.41208 15.764C6.20675 17.0707 6.07608 18.5267 6.02008 20.132C5.68408 20.4493 5.30141 20.692 4.87208 20.86C4.46141 21.028 4.04141 21.112 3.61208 21.112C2.95874 21.112 2.38008 20.888 1.87608 20.44C1.37208 19.9733 1.12008 19.1987 1.12008 18.116C1.12008 17.3693 1.23208 16.5293 1.45608 15.596C1.68008 14.6627 1.95074 13.7013 2.26808 12.712C2.60408 11.7227 2.94008 10.7613 3.27608 9.828C3.61208 8.89467 3.89208 8.05467 4.11608 7.308C4.34008 6.54267 4.45208 5.936 4.45208 5.488C4.45208 5.02133 4.29341 4.788 3.97608 4.788C3.62141 4.788 3.19208 5.05867 2.68808 5.6C2.18408 6.12267 1.67074 6.86 1.14808 7.812L0.980078 7.756C0.980078 6.636 1.22274 5.63733 1.70808 4.76C2.19341 3.88267 2.84675 3.14533 3.66808 2.548C4.50808 1.932 5.46941 1.46533 6.55208 1.148C7.65341 0.830666 8.80141 0.672 9.99608 0.672C11.5827 0.672 12.8707 0.923999 13.8601 1.428C14.8494 1.91333 15.5774 2.548 16.0441 3.332C16.5294 4.09733 16.7721 4.91867 16.7721 5.796C16.7721 6.692 16.5387 7.56933 16.0721 8.428C15.6241 9.28667 14.9801 10.0053 14.1401 10.584C13.3187 11.144 12.3387 11.4707 11.2001 11.564C11.5921 11.8627 11.9281 12.2453 12.2081 12.712C12.4881 13.16 12.7774 13.6733 13.0761 14.252C13.3374 14.7747 13.6454 15.2787 14.0001 15.764C14.3547 16.2307 14.8401 16.464 15.4561 16.464C15.7734 16.464 16.0347 16.3893 16.2401 16.24C16.4454 16.072 16.6227 15.8013 16.7721 15.428L16.9401 15.512C17.0334 15.792 17.0894 16.0627 17.1081 16.324C17.1454 16.5853 17.1641 16.828 17.1641 17.052C17.1641 18.228 16.8374 19.2173 16.1841 20.02C15.5307 20.804 14.6907 21.196 13.6641 21.196ZM8.68008 9.1C9.35208 9.1 9.93075 8.95067 10.4161 8.652C10.9201 8.33467 11.3027 7.952 11.5641 7.504C11.8441 7.03733 11.9841 6.57067 11.9841 6.104C11.9841 5.52533 11.7601 5.02133 11.3121 4.592C10.8827 4.144 10.1734 3.92 9.18408 3.92C9.03475 3.92 8.87608 3.92933 8.70808 3.948C8.55875 3.948 8.40941 3.95733 8.26008 3.976C8.27875 4.10667 8.28808 4.23733 8.28808 4.368C8.28808 4.48 8.28808 4.536 8.28808 4.536C8.28808 5.39467 8.25075 6.22533 8.17608 7.028C8.12008 7.83067 8.03608 8.50267 7.92408 9.044C8.05474 9.06267 8.17608 9.08133 8.28808 9.1C8.41875 9.1 8.54941 9.1 8.68008 9.1ZM24.5963 21.196C23.2337 21.196 22.1043 20.9253 21.2083 20.384C20.3123 19.824 19.6403 19.096 19.1923 18.2C18.7443 17.2853 18.5203 16.3053 18.5203 15.26C18.5203 14.2707 18.707 13.2813 19.0803 12.292C19.4723 11.284 20.0323 10.3693 20.7603 9.548C21.507 8.72667 22.403 8.064 23.4483 7.56C24.5123 7.056 25.707 6.804 27.0323 6.804C28.675 6.804 29.8697 7.17733 30.6163 7.924C31.3817 8.652 31.7643 9.53867 31.7643 10.584C31.7643 11.48 31.5217 12.3107 31.0363 13.076C30.5697 13.8227 29.9443 14.4293 29.1603 14.896C28.3763 15.344 27.5177 15.568 26.5843 15.568C26.099 15.568 25.6043 15.4933 25.1003 15.344C24.5963 15.1947 24.1017 14.9613 23.6163 14.644C23.7097 15.8013 24.0457 16.6413 24.6243 17.164C25.203 17.6867 25.8937 17.948 26.6963 17.948C27.2563 17.948 27.8163 17.8453 28.3763 17.64C28.9363 17.416 29.4497 17.136 29.9163 16.8C30.4017 16.4453 30.775 16.072 31.0363 15.68L31.2323 15.82C31.2323 16.7907 31.027 17.6213 30.6163 18.312C30.2243 18.984 29.7017 19.5347 29.0483 19.964C28.395 20.3933 27.6763 20.7107 26.8923 20.916C26.127 21.1027 25.3617 21.196 24.5963 21.196ZM25.2403 13.636C25.8377 13.636 26.323 13.468 26.6963 13.132C27.0697 12.7773 27.3497 12.3667 27.5363 11.9C27.723 11.4333 27.8163 11.0227 27.8163 10.668C27.8163 10.2387 27.695 9.884 27.4523 9.604C27.2097 9.30533 26.8737 9.156 26.4443 9.156C26.1083 9.156 25.735 9.27733 25.3243 9.52C24.9323 9.76267 24.5777 10.1827 24.2603 10.78C23.943 11.3587 23.7377 12.1707 23.6443 13.216C24.2417 13.496 24.7737 13.636 25.2403 13.636ZM36.5086 21.084C35.8179 21.084 35.1926 20.8133 34.6326 20.272C34.0726 19.712 33.7926 18.9373 33.7926 17.948C33.7926 17.4627 33.8579 16.912 33.9886 16.296C34.1192 15.68 34.2592 15.0547 34.4086 14.42C34.5766 13.7853 34.7259 13.188 34.8566 12.628C34.9872 12.068 35.0526 11.6107 35.0526 11.256C35.0526 10.8827 34.9779 10.5933 34.8286 10.388C34.6792 10.164 34.4832 10.052 34.2406 10.052C33.9232 10.052 33.5779 10.2387 33.2046 10.612L33.0366 10.5C33.0179 10.2013 33.0832 9.84667 33.2326 9.436C33.3819 9.02533 33.6059 8.63333 33.9046 8.26C34.2219 7.868 34.6232 7.54133 35.1086 7.28C35.5939 7.01867 36.1726 6.888 36.8446 6.888C37.8339 6.888 38.5619 7.17733 39.0286 7.756C39.5139 8.316 39.7566 9.00667 39.7566 9.828C39.7566 10.1267 39.7286 10.416 39.6726 10.696C40.0646 10.1173 40.5499 9.53867 41.1286 8.96C41.7072 8.36267 42.3419 7.868 43.0326 7.476C43.7419 7.084 44.4699 6.888 45.2166 6.888C46.0939 6.888 46.6912 7.168 47.0086 7.728C47.3259 8.288 47.4846 8.988 47.4846 9.828C47.4846 10.612 47.4006 11.452 47.2326 12.348C47.0646 13.244 46.8966 14.112 46.7286 14.952C46.5606 15.7733 46.4766 16.464 46.4766 17.024C46.4766 17.7707 46.6912 18.144 47.1206 18.144C47.3446 18.144 47.5406 18.0787 47.7086 17.948C47.8766 17.7987 47.9886 17.6587 48.0446 17.528L48.2406 17.612C48.2406 18.3027 48.0446 18.9093 47.6526 19.432C47.2792 19.9547 46.8032 20.3653 46.2246 20.664C45.6459 20.944 45.0579 21.084 44.4606 21.084C43.7326 21.084 43.0886 20.832 42.5286 20.328C41.9686 19.824 41.6886 19.0027 41.6886 17.864C41.6886 17.192 41.7726 16.464 41.9406 15.68C42.1272 14.896 42.3046 14.14 42.4726 13.412C42.6406 12.684 42.7246 12.0867 42.7246 11.62C42.7246 11.34 42.6686 11.1253 42.5566 10.976C42.4632 10.808 42.2859 10.724 42.0246 10.724C41.5952 10.724 41.1192 10.92 40.5966 11.312C40.0926 11.704 39.6539 12.2267 39.2806 12.88C38.9259 13.5333 38.7486 14.252 38.7486 15.036C38.7486 15.54 38.8046 16.0253 38.9166 16.492C39.0472 16.9587 39.1126 17.4627 39.1126 18.004C39.1126 19.012 38.8512 19.7773 38.3286 20.3C37.8059 20.8227 37.1992 21.084 36.5086 21.084ZM53.7515 21.112C53.1542 21.112 52.5849 20.9813 52.0435 20.72C51.5209 20.44 51.0915 20.0107 50.7555 19.432C50.4382 18.8533 50.2795 18.116 50.2795 17.22C50.2795 16.7347 50.3262 16.1 50.4195 15.316C50.5129 14.532 50.6342 13.6733 50.7835 12.74C50.9515 11.8067 51.1195 10.8733 51.2875 9.94C50.9142 9.95867 50.5502 9.996 50.1955 10.052C49.8595 10.108 49.5235 10.1733 49.1875 10.248L49.1315 10.052C49.5049 9.604 49.8969 9.22133 50.3075 8.904C50.7182 8.58667 51.1475 8.32533 51.5955 8.12C51.8382 6.888 52.0435 5.824 52.2115 4.928C52.3795 4.01333 52.4635 3.472 52.4635 3.304C52.4635 2.98667 52.7062 2.72533 53.1915 2.52C53.6955 2.31467 54.2555 2.212 54.8715 2.212C55.4129 2.212 55.9169 2.31467 56.3835 2.52C56.8689 2.72533 57.1955 3.07067 57.3635 3.556C57.2515 3.668 57.0929 4.088 56.8875 4.816C56.6822 5.52533 56.4675 6.39333 56.2435 7.42C56.5982 7.43867 56.9622 7.45733 57.3355 7.476C57.7089 7.49467 58.0915 7.52267 58.4835 7.56C58.5209 7.672 58.5489 7.79333 58.5675 7.924C58.5862 8.05467 58.5955 8.19467 58.5955 8.344C58.5955 8.624 58.5489 8.932 58.4555 9.268C58.3809 9.58533 58.2875 9.87467 58.1755 10.136C57.7275 10.0987 57.3075 10.0613 56.9155 10.024C56.5235 9.968 56.1409 9.93067 55.7675 9.912C55.6182 10.7147 55.4782 11.5173 55.3475 12.32C55.2355 13.1227 55.1422 13.8507 55.0675 14.504C55.0115 15.1573 54.9835 15.6707 54.9835 16.044C54.9835 16.828 55.1235 17.3507 55.4035 17.612C55.7022 17.8733 56.0569 18.004 56.4675 18.004C56.8409 18.004 57.1769 17.9293 57.4755 17.78C57.7742 17.6307 57.9889 17.4533 58.1195 17.248L58.3995 17.332C58.2875 18.0973 57.9889 18.7693 57.5035 19.348C57.0182 19.908 56.4395 20.3467 55.7675 20.664C55.0955 20.9627 54.4235 21.112 53.7515 21.112ZM67.1139 21.112C66.4419 21.112 65.8446 20.8227 65.3219 20.244C64.7992 19.6467 64.5379 18.7227 64.5379 17.472C64.5379 16.5947 64.6499 15.7173 64.8739 14.84C65.1166 13.9627 65.3592 13.16 65.6019 12.432C65.9752 11.2373 66.3019 10.136 66.5819 9.128C66.8619 8.12 67.0019 7.15867 67.0019 6.244C67.0019 5.60933 66.9272 5.17067 66.7779 4.928C66.6472 4.68533 66.4699 4.564 66.2459 4.564C66.0032 4.564 65.7326 4.69467 65.4339 4.956C65.1539 5.21733 64.8739 5.61867 64.5939 6.16L64.3979 6.104C64.4352 5.02133 64.6686 4.088 65.0979 3.304C65.5272 2.52 66.0686 1.91333 66.7219 1.484C67.3752 1.05467 68.0472 0.839999 68.7379 0.839999C69.5219 0.839999 70.1939 1.15733 70.7539 1.792C71.3139 2.408 71.5939 3.48133 71.5939 5.012C71.5939 5.81467 71.5099 6.65467 71.3419 7.532C71.1926 8.40933 71.0152 9.28667 70.8099 10.164C71.4446 9.90267 72.1166 9.716 72.8259 9.604C73.5352 9.492 74.2912 9.436 75.0939 9.436H75.8219C76.0646 8.50267 76.2699 7.588 76.4379 6.692C76.6246 5.77733 76.7179 4.928 76.7179 4.144C76.7179 3.864 76.6992 3.60267 76.6619 3.36C76.6432 3.11733 76.6152 2.884 76.5779 2.66V2.436C76.8579 1.932 77.2592 1.53067 77.7819 1.232C78.3232 0.933332 78.8646 0.783998 79.4059 0.783998C80.0219 0.783998 80.5632 0.989332 81.0299 1.4C81.4966 1.792 81.7299 2.42667 81.7299 3.304C81.7299 3.95733 81.5992 4.79733 81.3379 5.824C81.0952 6.85067 80.8152 7.90533 80.4979 8.988C80.1246 10.3133 79.7792 11.6013 79.4619 12.852C79.1632 14.084 79.0139 15.1293 79.0139 15.988C79.0139 16.5667 79.1072 17.024 79.2939 17.36C79.4806 17.696 79.7792 17.864 80.1899 17.864C80.7499 17.864 81.1699 17.5933 81.4499 17.052L81.6179 17.136C81.5992 17.92 81.3846 18.6107 80.9739 19.208C80.5632 19.8053 80.0499 20.272 79.4339 20.608C78.8366 20.944 78.2206 21.112 77.5859 21.112C77.0259 21.112 76.4939 20.972 75.9899 20.692C75.5046 20.3933 75.1032 19.936 74.7859 19.32C74.4872 18.704 74.3379 17.9013 74.3379 16.912C74.3379 16.2587 74.4032 15.5493 74.5339 14.784C74.6832 14 74.8512 13.2067 75.0379 12.404C74.1792 12.348 73.3392 12.32 72.5179 12.32C72.1072 12.32 71.7152 12.3293 71.3419 12.348C70.9686 12.3667 70.6139 12.3947 70.2779 12.432C70.1099 13.1787 69.9606 13.916 69.8299 14.644C69.7179 15.3533 69.6619 16.044 69.6619 16.716C69.6619 17.0893 69.6806 17.4627 69.7179 17.836C69.7739 18.1907 69.8579 18.536 69.9699 18.872C69.6712 19.6 69.2512 20.16 68.7099 20.552C68.1872 20.9253 67.6552 21.112 67.1139 21.112ZM88.7194 21.196C87.3194 21.196 86.1621 20.916 85.2474 20.356C84.3327 19.796 83.6514 19.0587 83.2034 18.144C82.7741 17.2107 82.5594 16.2213 82.5594 15.176C82.5594 14.1867 82.7367 13.1973 83.0914 12.208C83.4647 11.2187 83.9967 10.3227 84.6874 9.52C85.3967 8.69867 86.2554 8.04533 87.2634 7.56C88.2714 7.056 89.4287 6.804 90.7354 6.804C92.1354 6.804 93.2834 7.09333 94.1794 7.672C95.0941 8.232 95.7661 8.97867 96.1954 9.912C96.6434 10.8453 96.8674 11.844 96.8674 12.908C96.8674 13.8787 96.6901 14.8587 96.3354 15.848C95.9807 16.8187 95.4487 17.7147 94.7394 18.536C94.0487 19.3387 93.1994 19.9827 92.1914 20.468C91.1834 20.9533 90.0261 21.196 88.7194 21.196ZM89.4754 18.816C89.9794 18.816 90.3994 18.5547 90.7354 18.032C91.0714 17.5093 91.3234 16.8467 91.4914 16.044C91.6594 15.2227 91.7434 14.392 91.7434 13.552C91.7434 12.8053 91.6687 12.1053 91.5194 11.452C91.3887 10.78 91.1834 10.2387 90.9034 9.828C90.6234 9.39867 90.2594 9.184 89.8114 9.184C89.3261 9.184 88.9061 9.44533 88.5514 9.968C88.2154 10.4907 87.9634 11.1533 87.7954 11.956C87.6274 12.7587 87.5434 13.5893 87.5434 14.448C87.5434 15.1947 87.6087 15.904 87.7394 16.576C87.8887 17.2293 88.1034 17.7707 88.3834 18.2C88.6634 18.6107 89.0274 18.816 89.4754 18.816ZM101.635 21.112C100.963 21.112 100.357 20.8413 99.8155 20.3C99.2928 19.74 99.0315 18.9747 99.0315 18.004C99.0315 17.5187 99.0968 16.968 99.2275 16.352C99.3582 15.7173 99.4982 15.0733 99.6475 14.42C99.8155 13.7667 99.9648 13.1507 100.095 12.572C100.226 11.9933 100.291 11.508 100.291 11.116C100.291 10.7987 100.217 10.5467 100.067 10.36C99.9182 10.1547 99.7222 10.052 99.4795 10.052C99.1622 10.052 98.8168 10.2387 98.4435 10.612L98.2755 10.5C98.2568 10.2013 98.3222 9.84667 98.4715 9.436C98.6208 9.02533 98.8635 8.63333 99.1995 8.26C99.5355 7.868 99.9742 7.54133 100.515 7.28C101.057 7.01867 101.701 6.888 102.447 6.888C103.287 6.888 103.913 7.18667 104.323 7.784C104.753 8.36267 104.967 9.06267 104.967 9.884C104.967 9.97733 104.967 10.08 104.967 10.192C104.967 10.2853 104.958 10.3787 104.939 10.472C105.294 9.89333 105.705 9.33333 106.171 8.792C106.657 8.25067 107.198 7.80267 107.795 7.448C108.411 7.07467 109.074 6.888 109.783 6.888C110.698 6.888 111.333 7.18667 111.687 7.784C112.042 8.36267 112.219 9.02533 112.219 9.772C112.219 9.92133 112.21 10.0707 112.191 10.22C112.191 10.3507 112.182 10.4813 112.163 10.612C112.555 10.0333 112.985 9.464 113.451 8.904C113.937 8.32533 114.487 7.84933 115.103 7.476C115.719 7.084 116.429 6.888 117.231 6.888C118.221 6.888 118.893 7.17733 119.247 7.756C119.621 8.33467 119.807 9.016 119.807 9.8C119.807 10.4907 119.723 11.284 119.555 12.18C119.387 13.0573 119.219 13.9253 119.051 14.784C118.883 15.6427 118.799 16.3707 118.799 16.968C118.799 17.3227 118.846 17.612 118.939 17.836C119.051 18.06 119.229 18.172 119.471 18.172C119.677 18.172 119.863 18.116 120.031 18.004C120.218 17.8733 120.349 17.724 120.423 17.556L120.647 17.64C120.647 18.3307 120.451 18.9373 120.059 19.46C119.667 19.9827 119.173 20.3933 118.575 20.692C117.978 20.972 117.381 21.112 116.783 21.112C116.055 21.112 115.411 20.8693 114.851 20.384C114.31 19.8987 114.039 19.096 114.039 17.976C114.039 17.2853 114.123 16.5387 114.291 15.736C114.478 14.9333 114.655 14.1587 114.823 13.412C115.01 12.6467 115.103 12.0213 115.103 11.536C115.103 10.8453 114.861 10.5 114.375 10.5C114.021 10.5 113.666 10.6493 113.311 10.948C112.975 11.228 112.667 11.6107 112.387 12.096C112.126 12.5627 111.911 13.0573 111.743 13.58C111.575 14.1027 111.491 14.6067 111.491 15.092C111.491 15.54 111.538 16.0347 111.631 16.576C111.743 17.0987 111.799 17.6027 111.799 18.088C111.799 19.0587 111.529 19.8053 110.987 20.328C110.446 20.8507 109.811 21.112 109.083 21.112C108.411 21.112 107.805 20.888 107.263 20.44C106.741 19.992 106.479 19.32 106.479 18.424C106.479 18.0133 106.535 17.5187 106.647 16.94C106.759 16.3427 106.881 15.7267 107.011 15.092C107.161 14.4387 107.291 13.8133 107.403 13.216C107.515 12.6187 107.571 12.096 107.571 11.648C107.571 11.2933 107.515 11.0133 107.403 10.808C107.31 10.6027 107.114 10.5 106.815 10.5C106.386 10.5 105.975 10.7147 105.583 11.144C105.191 11.5733 104.855 12.096 104.575 12.712C104.295 13.3093 104.109 13.888 104.015 14.448C103.997 14.5787 103.978 14.6813 103.959 14.756C103.959 14.8307 103.959 14.868 103.959 14.868C103.959 15.4467 104.025 15.9787 104.155 16.464C104.286 16.9307 104.351 17.416 104.351 17.92C104.351 18.8347 104.071 19.6 103.511 20.216C102.97 20.8133 102.345 21.112 101.635 21.112ZM127.956 21.196C126.593 21.196 125.464 20.9253 124.568 20.384C123.672 19.824 123 19.096 122.552 18.2C122.104 17.2853 121.88 16.3053 121.88 15.26C121.88 14.2707 122.066 13.2813 122.44 12.292C122.832 11.284 123.392 10.3693 124.12 9.548C124.866 8.72667 125.762 8.064 126.808 7.56C127.872 7.056 129.066 6.804 130.392 6.804C132.034 6.804 133.229 7.17733 133.976 7.924C134.741 8.652 135.124 9.53867 135.124 10.584C135.124 11.48 134.881 12.3107 134.396 13.076C133.929 13.8227 133.304 14.4293 132.52 14.896C131.736 15.344 130.877 15.568 129.944 15.568C129.458 15.568 128.964 15.4933 128.46 15.344C127.956 15.1947 127.461 14.9613 126.976 14.644C127.069 15.8013 127.405 16.6413 127.984 17.164C128.562 17.6867 129.253 17.948 130.056 17.948C130.616 17.948 131.176 17.8453 131.736 17.64C132.296 17.416 132.809 17.136 133.276 16.8C133.761 16.4453 134.134 16.072 134.396 15.68L134.592 15.82C134.592 16.7907 134.386 17.6213 133.976 18.312C133.584 18.984 133.061 19.5347 132.408 19.964C131.754 20.3933 131.036 20.7107 130.252 20.916C129.486 21.1027 128.721 21.196 127.956 21.196ZM128.6 13.636C129.197 13.636 129.682 13.468 130.056 13.132C130.429 12.7773 130.709 12.3667 130.896 11.9C131.082 11.4333 131.176 11.0227 131.176 10.668C131.176 10.2387 131.054 9.884 130.812 9.604C130.569 9.30533 130.233 9.156 129.804 9.156C129.468 9.156 129.094 9.27733 128.684 9.52C128.292 9.76267 127.937 10.1827 127.62 10.78C127.302 11.3587 127.097 12.1707 127.004 13.216C127.601 13.496 128.133 13.636 128.6 13.636ZM143.333 21.112C142.754 21.112 142.241 20.972 141.793 20.692C141.345 20.412 141.121 19.9453 141.121 19.292C141.121 18.2653 141.335 17.22 141.765 16.156C142.213 15.092 142.754 14.0467 143.389 13.02C144.042 11.9747 144.686 10.9573 145.321 9.968C145.974 8.97867 146.515 8.036 146.945 7.14C147.393 6.244 147.617 5.41333 147.617 4.648C147.617 4.032 147.467 3.724 147.169 3.724C146.963 3.724 146.73 3.892 146.469 4.228C146.207 4.54533 146.021 5.02133 145.909 5.656L145.601 5.6C145.601 4.536 145.853 3.64 146.357 2.912C146.861 2.16533 147.505 1.60533 148.289 1.232C149.073 0.858666 149.875 0.672 150.697 0.672C151.649 0.672 152.535 0.942666 153.357 1.484C154.197 2.02533 154.775 2.884 155.093 4.06C155.223 4.52667 155.317 5.04933 155.373 5.628C155.447 6.20667 155.494 6.71067 155.513 7.14C155.531 7.55067 155.541 7.756 155.541 7.756C155.578 9.268 155.606 10.5467 155.625 11.592C155.662 12.6373 155.718 13.5147 155.793 14.224C155.867 14.9333 155.97 15.5307 156.101 16.016C156.231 16.4827 156.399 16.8653 156.605 17.164C156.829 17.444 157.109 17.584 157.445 17.584C157.762 17.584 158.033 17.4907 158.257 17.304C158.499 17.1173 158.658 16.94 158.733 16.772L158.929 16.912C158.929 17.7707 158.761 18.5173 158.425 19.152C158.089 19.7867 157.65 20.272 157.109 20.608C156.567 20.944 155.998 21.112 155.401 21.112C154.822 21.112 154.253 20.944 153.693 20.608C153.151 20.2533 152.675 19.712 152.265 18.984C151.854 18.256 151.583 17.3133 151.453 16.156C150.874 16.1187 150.305 16.0907 149.745 16.072C149.203 16.0347 148.709 16.016 148.261 16.016C147.962 16.016 147.673 16.0253 147.393 16.044C147.131 16.044 146.87 16.0533 146.609 16.072C146.441 16.6507 146.301 17.2387 146.189 17.836C146.095 18.4147 146.049 18.984 146.049 19.544C146.049 19.9733 145.769 20.3467 145.209 20.664C144.649 20.9627 144.023 21.112 143.333 21.112ZM147.533 13.468C147.999 13.3373 148.494 13.2533 149.017 13.216C149.539 13.16 150.099 13.132 150.697 13.132H151.313C151.275 11.7507 151.219 10.332 151.145 8.876C151.089 7.42 150.855 6.06667 150.445 4.816C150.295 6.16 149.922 7.56933 149.325 9.044C148.727 10.5187 148.13 11.9933 147.533 13.468ZM163.083 21.084C162.392 21.084 161.767 20.8133 161.207 20.272C160.647 19.712 160.367 18.9373 160.367 17.948C160.367 17.4627 160.432 16.912 160.563 16.296C160.693 15.68 160.833 15.0547 160.983 14.42C161.151 13.7853 161.3 13.188 161.431 12.628C161.561 12.068 161.627 11.6107 161.627 11.256C161.627 10.8827 161.552 10.5933 161.403 10.388C161.253 10.164 161.057 10.052 160.815 10.052C160.497 10.052 160.152 10.2387 159.779 10.612L159.611 10.5C159.592 10.2013 159.657 9.84667 159.807 9.436C159.956 9.02533 160.18 8.63333 160.479 8.26C160.796 7.868 161.197 7.54133 161.683 7.28C162.168 7.01867 162.747 6.888 163.419 6.888C164.408 6.888 165.136 7.17733 165.603 7.756C166.088 8.316 166.331 9.00667 166.331 9.828C166.331 10.1267 166.303 10.416 166.247 10.696C166.639 10.1173 167.124 9.53867 167.703 8.96C168.281 8.36267 168.916 7.868 169.607 7.476C170.316 7.084 171.044 6.888 171.791 6.888C172.668 6.888 173.265 7.168 173.583 7.728C173.9 8.288 174.059 8.988 174.059 9.828C174.059 10.612 173.975 11.452 173.807 12.348C173.639 13.244 173.471 14.112 173.303 14.952C173.135 15.7733 173.051 16.464 173.051 17.024C173.051 17.7707 173.265 18.144 173.695 18.144C173.919 18.144 174.115 18.0787 174.283 17.948C174.451 17.7987 174.563 17.6587 174.619 17.528L174.815 17.612C174.815 18.3027 174.619 18.9093 174.227 19.432C173.853 19.9547 173.377 20.3653 172.799 20.664C172.22 20.944 171.632 21.084 171.035 21.084C170.307 21.084 169.663 20.832 169.103 20.328C168.543 19.824 168.263 19.0027 168.263 17.864C168.263 17.192 168.347 16.464 168.515 15.68C168.701 14.896 168.879 14.14 169.047 13.412C169.215 12.684 169.299 12.0867 169.299 11.62C169.299 11.34 169.243 11.1253 169.131 10.976C169.037 10.808 168.86 10.724 168.599 10.724C168.169 10.724 167.693 10.92 167.171 11.312C166.667 11.704 166.228 12.2267 165.855 12.88C165.5 13.5333 165.323 14.252 165.323 15.036C165.323 15.54 165.379 16.0253 165.491 16.492C165.621 16.9587 165.687 17.4627 165.687 18.004C165.687 19.012 165.425 19.7773 164.903 20.3C164.38 20.8227 163.773 21.084 163.083 21.084ZM180.299 21.112C179.627 21.112 178.992 20.8787 178.395 20.412C177.816 19.9453 177.34 19.264 176.967 18.368C176.612 17.472 176.435 16.3893 176.435 15.12C176.435 13.8133 176.622 12.6467 176.995 11.62C177.368 10.5933 177.854 9.72533 178.451 9.016C179.067 8.288 179.73 7.73733 180.439 7.364C181.167 6.99067 181.876 6.804 182.567 6.804C183.332 6.804 184.014 7.04667 184.611 7.532C185.208 7.99867 185.619 8.736 185.843 9.744C186.011 8.81067 186.151 7.924 186.263 7.084C186.394 6.22533 186.459 5.46933 186.459 4.816C186.459 3.95733 186.347 3.332 186.123 2.94V2.772C186.552 2.28667 187.019 1.932 187.523 1.708C188.046 1.46533 188.54 1.344 189.007 1.344C189.623 1.344 190.146 1.54 190.575 1.932C191.004 2.30533 191.219 2.84667 191.219 3.556C191.219 3.948 191.154 4.52667 191.023 5.292C190.892 6.05733 190.734 6.93467 190.547 7.924C190.36 8.89467 190.164 9.90267 189.959 10.948C189.772 11.9747 189.614 12.964 189.483 13.916C189.352 14.8493 189.287 15.6613 189.287 16.352C189.287 16.9307 189.343 17.3973 189.455 17.752C189.586 18.088 189.791 18.256 190.071 18.256C190.276 18.256 190.482 18.1907 190.687 18.06C190.911 17.9107 191.06 17.7427 191.135 17.556L191.331 17.696C191.331 18.312 191.135 18.8813 190.743 19.404C190.351 19.908 189.856 20.3187 189.259 20.636C188.662 20.9533 188.046 21.112 187.411 21.112C186.72 21.112 186.17 20.9253 185.759 20.552C185.367 20.16 185.087 19.6653 184.919 19.068C184.751 18.4707 184.658 17.8547 184.639 17.22C184.06 18.564 183.379 19.5533 182.595 20.188C181.83 20.804 181.064 21.112 180.299 21.112ZM182.175 17.556C182.66 17.556 183.202 17.1173 183.799 16.24C184.396 15.3627 184.919 14.084 185.367 12.404L185.535 11.536C185.236 10.8453 184.91 10.36 184.555 10.08C184.219 9.78133 183.892 9.632 183.575 9.632C183.108 9.632 182.67 9.89333 182.259 10.416C181.848 10.92 181.512 11.5733 181.251 12.376C181.008 13.16 180.887 13.9907 180.887 14.868C180.887 15.708 181.008 16.3707 181.251 16.856C181.494 17.3227 181.802 17.556 182.175 17.556ZM199.387 21.112C198.809 21.112 198.295 20.972 197.847 20.692C197.399 20.412 197.175 19.9453 197.175 19.292C197.175 18.2653 197.39 17.22 197.819 16.156C198.267 15.092 198.809 14.0467 199.443 13.02C200.097 11.9747 200.741 10.9573 201.375 9.968C202.029 8.97867 202.57 8.036 202.999 7.14C203.447 6.244 203.671 5.41333 203.671 4.648C203.671 4.032 203.522 3.724 203.223 3.724C203.018 3.724 202.785 3.892 202.523 4.228C202.262 4.54533 202.075 5.02133 201.963 5.656L201.655 5.6C201.655 4.536 201.907 3.64 202.411 2.912C202.915 2.16533 203.559 1.60533 204.343 1.232C205.127 0.858666 205.93 0.672 206.751 0.672C207.703 0.672 208.59 0.942666 209.411 1.484C210.251 2.02533 210.83 2.884 211.147 4.06C211.278 4.52667 211.371 5.04933 211.427 5.628C211.502 6.20667 211.549 6.71067 211.567 7.14C211.586 7.55067 211.595 7.756 211.595 7.756C211.633 9.268 211.661 10.5467 211.679 11.592C211.717 12.6373 211.773 13.5147 211.847 14.224C211.922 14.9333 212.025 15.5307 212.155 16.016C212.286 16.4827 212.454 16.8653 212.659 17.164C212.883 17.444 213.163 17.584 213.499 17.584C213.817 17.584 214.087 17.4907 214.311 17.304C214.554 17.1173 214.713 16.94 214.787 16.772L214.983 16.912C214.983 17.7707 214.815 18.5173 214.479 19.152C214.143 19.7867 213.705 20.272 213.163 20.608C212.622 20.944 212.053 21.112 211.455 21.112C210.877 21.112 210.307 20.944 209.747 20.608C209.206 20.2533 208.73 19.712 208.319 18.984C207.909 18.256 207.638 17.3133 207.507 16.156C206.929 16.1187 206.359 16.0907 205.799 16.072C205.258 16.0347 204.763 16.016 204.315 16.016C204.017 16.016 203.727 16.0253 203.447 16.044C203.186 16.044 202.925 16.0533 202.663 16.072C202.495 16.6507 202.355 17.2387 202.243 17.836C202.15 18.4147 202.103 18.984 202.103 19.544C202.103 19.9733 201.823 20.3467 201.263 20.664C200.703 20.9627 200.078 21.112 199.387 21.112ZM203.587 13.468C204.054 13.3373 204.549 13.2533 205.071 13.216C205.594 13.16 206.154 13.132 206.751 13.132H207.367C207.33 11.7507 207.274 10.332 207.199 8.876C207.143 7.42 206.91 6.06667 206.499 4.816C206.35 6.16 205.977 7.56933 205.379 9.044C204.782 10.5187 204.185 11.9933 203.587 13.468ZM218.711 26.6C218.244 26.6 217.796 26.4787 217.367 26.236C216.956 25.9933 216.611 25.6013 216.331 25.06C216.07 24.5187 215.939 23.7907 215.939 22.876C215.939 21.9987 216.051 21.0467 216.275 20.02C216.518 18.9933 216.788 17.9667 217.087 16.94C217.386 15.8947 217.647 14.9053 217.871 13.972C218.114 13.0387 218.235 12.208 218.235 11.48C218.235 10.9387 218.16 10.5747 218.011 10.388C217.862 10.1827 217.684 10.08 217.479 10.08C217.292 10.08 217.106 10.136 216.919 10.248C216.732 10.36 216.574 10.4907 216.443 10.64L216.247 10.528C216.247 9.87467 216.434 9.27733 216.807 8.736C217.199 8.176 217.694 7.728 218.291 7.392C218.888 7.056 219.504 6.888 220.139 6.888C220.755 6.888 221.25 7.04667 221.623 7.364C221.996 7.66267 222.276 8.05467 222.463 8.54C222.668 9.02533 222.79 9.548 222.827 10.108C223.536 8.988 224.311 8.15733 225.151 7.616C225.991 7.07467 226.784 6.804 227.531 6.804C228.539 6.804 229.388 7.28 230.079 8.232C230.788 9.184 231.143 10.6587 231.143 12.656C231.143 14.5227 230.844 16.0907 230.247 17.36C229.65 18.6107 228.894 19.5533 227.979 20.188C227.083 20.804 226.168 21.112 225.235 21.112C224.432 21.112 223.686 20.8787 222.995 20.412C222.323 19.9267 221.8 19.2267 221.427 18.312C221.259 19.0773 221.11 19.8333 220.979 20.58C220.867 21.3267 220.811 22.0547 220.811 22.764C220.811 23.156 220.83 23.5387 220.867 23.912C220.923 24.2853 221.007 24.6587 221.119 25.032V25.2C220.876 25.6667 220.531 26.012 220.083 26.236C219.654 26.4787 219.196 26.6 218.711 26.6ZM223.863 18.396C224.311 18.396 224.703 18.2187 225.039 17.864C225.375 17.5093 225.664 17.052 225.907 16.492C226.15 15.9133 226.327 15.2973 226.439 14.644C226.57 13.9907 226.635 13.356 226.635 12.74C226.635 11.956 226.532 11.2933 226.327 10.752C226.122 10.192 225.804 9.912 225.375 9.912C224.834 9.912 224.227 10.4627 223.555 11.564C222.883 12.6467 222.36 14.2987 221.987 16.52C222.155 17.0987 222.407 17.556 222.743 17.892C223.079 18.228 223.452 18.396 223.863 18.396ZM243.034 21.14C242.381 21.14 241.811 20.9253 241.326 20.496C240.841 20.0667 240.598 19.3667 240.598 18.396C240.598 18.3027 240.598 18.2093 240.598 18.116C240.598 18.0227 240.607 17.9293 240.626 17.836C240.066 18.956 239.431 19.7867 238.722 20.328C238.031 20.8507 237.331 21.112 236.622 21.112C235.969 21.112 235.353 20.888 234.774 20.44C234.195 19.9733 233.729 19.292 233.374 18.396C233.019 17.5 232.842 16.4173 232.842 15.148C232.842 13.8413 233.019 12.6747 233.374 11.648C233.747 10.6213 234.233 9.75333 234.83 9.044C235.427 8.33467 236.081 7.80267 236.79 7.448C237.499 7.07467 238.19 6.888 238.862 6.888C239.609 6.888 240.281 7.12133 240.878 7.588C241.475 8.036 241.886 8.75467 242.11 9.744C242.166 9.42667 242.203 9.13733 242.222 8.876C242.259 8.61467 242.278 8.43733 242.278 8.344C242.297 7.84 242.549 7.46667 243.034 7.224C243.538 6.98133 244.089 6.86 244.686 6.86C245.209 6.86 245.703 6.96267 246.17 7.168C246.637 7.37333 246.954 7.71867 247.122 8.204L247.178 8.372C246.954 8.876 246.73 9.48267 246.506 10.192C246.282 10.9013 246.077 11.648 245.89 12.432C245.703 13.1973 245.554 13.9533 245.442 14.7C245.33 15.428 245.274 16.072 245.274 16.632C245.274 17.248 245.339 17.6773 245.47 17.92C245.601 18.144 245.759 18.256 245.946 18.256C246.263 18.256 246.553 18.032 246.814 17.584L247.038 17.696C247.038 18.3307 246.833 18.9093 246.422 19.432C246.011 19.9547 245.498 20.3747 244.882 20.692C244.266 20.9907 243.65 21.14 243.034 21.14ZM238.47 17.584C238.955 17.584 239.487 17.1547 240.066 16.296C240.663 15.4187 241.177 14.168 241.606 12.544C241.643 12.376 241.681 12.2173 241.718 12.068C241.755 11.9 241.783 11.7413 241.802 11.592C241.503 10.9013 241.186 10.416 240.85 10.136C240.533 9.83733 240.215 9.688 239.898 9.688C239.431 9.688 238.993 9.94 238.582 10.444C238.19 10.9293 237.863 11.5453 237.602 12.292C237.359 13.0387 237.238 13.7853 237.238 14.532C237.238 15.5587 237.35 16.324 237.574 16.828C237.817 17.332 238.115 17.584 238.47 17.584ZM251.923 21.112C251.251 21.112 250.653 20.8413 250.131 20.3C249.608 19.74 249.347 18.956 249.347 17.948C249.347 17.4627 249.403 16.912 249.515 16.296C249.627 15.68 249.757 15.0547 249.907 14.42C250.056 13.7667 250.187 13.16 250.299 12.6C250.411 12.0213 250.467 11.5453 250.467 11.172C250.467 10.78 250.392 10.472 250.243 10.248C250.112 10.0053 249.935 9.884 249.711 9.884C249.356 9.884 248.992 10.1267 248.619 10.612L248.451 10.5C248.432 10.2013 248.497 9.84667 248.647 9.436C248.796 9.02533 249.029 8.63333 249.347 8.26C249.664 7.868 250.065 7.54133 250.551 7.28C251.055 7.01867 251.643 6.888 252.315 6.888C253.304 6.888 254.023 7.17733 254.471 7.756C254.919 8.316 255.143 8.99733 255.143 9.8C255.143 9.93067 255.133 10.0707 255.115 10.22C255.115 10.3507 255.105 10.4813 255.087 10.612C255.759 9.39867 256.459 8.47467 257.187 7.84C257.933 7.18667 258.624 6.86 259.259 6.86C259.856 6.86 260.295 7.09333 260.575 7.56C260.855 8.02667 260.995 8.58667 260.995 9.24C260.995 9.83733 260.873 10.444 260.631 11.06C260.407 11.676 260.061 12.1893 259.595 12.6C259.147 12.992 258.596 13.1787 257.943 13.16L257.831 13.104C257.812 12.6187 257.653 12.236 257.355 11.956C257.056 11.676 256.72 11.536 256.347 11.536C255.843 11.536 255.367 11.788 254.919 12.292C254.489 12.796 254.275 13.524 254.275 14.476C254.275 15.0547 254.34 15.68 254.471 16.352C254.601 17.024 254.667 17.5933 254.667 18.06C254.667 18.62 254.536 19.1333 254.275 19.6C254.013 20.0667 253.677 20.44 253.267 20.72C252.856 20.9813 252.408 21.112 251.923 21.112ZM265.966 21.112C265.369 21.112 264.8 20.9813 264.258 20.72C263.736 20.44 263.306 20.0107 262.97 19.432C262.653 18.8533 262.494 18.116 262.494 17.22C262.494 16.7347 262.541 16.1 262.634 15.316C262.728 14.532 262.849 13.6733 262.998 12.74C263.166 11.8067 263.334 10.8733 263.502 9.94C263.129 9.95867 262.765 9.996 262.41 10.052C262.074 10.108 261.738 10.1733 261.402 10.248L261.346 10.052C261.72 9.604 262.112 9.22133 262.522 8.904C262.933 8.58667 263.362 8.32533 263.81 8.12C264.053 6.888 264.258 5.824 264.426 4.928C264.594 4.01333 264.678 3.472 264.678 3.304C264.678 2.98667 264.921 2.72533 265.406 2.52C265.91 2.31467 266.47 2.212 267.086 2.212C267.628 2.212 268.132 2.31467 268.598 2.52C269.084 2.72533 269.41 3.07067 269.578 3.556C269.466 3.668 269.308 4.088 269.102 4.816C268.897 5.52533 268.682 6.39333 268.458 7.42C268.813 7.43867 269.177 7.45733 269.55 7.476C269.924 7.49467 270.306 7.52267 270.698 7.56C270.736 7.672 270.764 7.79333 270.782 7.924C270.801 8.05467 270.81 8.19467 270.81 8.344C270.81 8.624 270.764 8.932 270.67 9.268C270.596 9.58533 270.502 9.87467 270.39 10.136C269.942 10.0987 269.522 10.0613 269.13 10.024C268.738 9.968 268.356 9.93067 267.982 9.912C267.833 10.7147 267.693 11.5173 267.562 12.32C267.45 13.1227 267.357 13.8507 267.282 14.504C267.226 15.1573 267.198 15.6707 267.198 16.044C267.198 16.828 267.338 17.3507 267.618 17.612C267.917 17.8733 268.272 18.004 268.682 18.004C269.056 18.004 269.392 17.9293 269.69 17.78C269.989 17.6307 270.204 17.4533 270.334 17.248L270.614 17.332C270.502 18.0973 270.204 18.7693 269.718 19.348C269.233 19.908 268.654 20.3467 267.982 20.664C267.31 20.9627 266.638 21.112 265.966 21.112ZM274.995 21.112C274.323 21.112 273.716 20.8413 273.175 20.3C272.652 19.74 272.391 18.9747 272.391 18.004C272.391 17.5187 272.456 16.968 272.587 16.352C272.718 15.7173 272.858 15.0733 273.007 14.42C273.175 13.7667 273.324 13.1507 273.455 12.572C273.586 11.9933 273.651 11.508 273.651 11.116C273.651 10.7987 273.576 10.5467 273.427 10.36C273.278 10.1547 273.082 10.052 272.839 10.052C272.522 10.052 272.176 10.2387 271.803 10.612L271.635 10.5C271.616 10.2013 271.682 9.84667 271.831 9.436C271.98 9.02533 272.223 8.63333 272.559 8.26C272.895 7.868 273.334 7.54133 273.875 7.28C274.416 7.01867 275.06 6.888 275.807 6.888C276.647 6.888 277.272 7.18667 277.683 7.784C278.112 8.36267 278.327 9.06267 278.327 9.884C278.327 9.97733 278.327 10.08 278.327 10.192C278.327 10.2853 278.318 10.3787 278.299 10.472C278.654 9.89333 279.064 9.33333 279.531 8.792C280.016 8.25067 280.558 7.80267 281.155 7.448C281.771 7.07467 282.434 6.888 283.143 6.888C284.058 6.888 284.692 7.18667 285.047 7.784C285.402 8.36267 285.579 9.02533 285.579 9.772C285.579 9.92133 285.57 10.0707 285.551 10.22C285.551 10.3507 285.542 10.4813 285.523 10.612C285.915 10.0333 286.344 9.464 286.811 8.904C287.296 8.32533 287.847 7.84933 288.463 7.476C289.079 7.084 289.788 6.888 290.591 6.888C291.58 6.888 292.252 7.17733 292.607 7.756C292.98 8.33467 293.167 9.016 293.167 9.8C293.167 10.4907 293.083 11.284 292.915 12.18C292.747 13.0573 292.579 13.9253 292.411 14.784C292.243 15.6427 292.159 16.3707 292.159 16.968C292.159 17.3227 292.206 17.612 292.299 17.836C292.411 18.06 292.588 18.172 292.831 18.172C293.036 18.172 293.223 18.116 293.391 18.004C293.578 17.8733 293.708 17.724 293.783 17.556L294.007 17.64C294.007 18.3307 293.811 18.9373 293.419 19.46C293.027 19.9827 292.532 20.3933 291.935 20.692C291.338 20.972 290.74 21.112 290.143 21.112C289.415 21.112 288.771 20.8693 288.211 20.384C287.67 19.8987 287.399 19.096 287.399 17.976C287.399 17.2853 287.483 16.5387 287.651 15.736C287.838 14.9333 288.015 14.1587 288.183 13.412C288.37 12.6467 288.463 12.0213 288.463 11.536C288.463 10.8453 288.22 10.5 287.735 10.5C287.38 10.5 287.026 10.6493 286.671 10.948C286.335 11.228 286.027 11.6107 285.747 12.096C285.486 12.5627 285.271 13.0573 285.103 13.58C284.935 14.1027 284.851 14.6067 284.851 15.092C284.851 15.54 284.898 16.0347 284.991 16.576C285.103 17.0987 285.159 17.6027 285.159 18.088C285.159 19.0587 284.888 19.8053 284.347 20.328C283.806 20.8507 283.171 21.112 282.443 21.112C281.771 21.112 281.164 20.888 280.623 20.44C280.1 19.992 279.839 19.32 279.839 18.424C279.839 18.0133 279.895 17.5187 280.007 16.94C280.119 16.3427 280.24 15.7267 280.371 15.092C280.52 14.4387 280.651 13.8133 280.763 13.216C280.875 12.6187 280.931 12.096 280.931 11.648C280.931 11.2933 280.875 11.0133 280.763 10.808C280.67 10.6027 280.474 10.5 280.175 10.5C279.746 10.5 279.335 10.7147 278.943 11.144C278.551 11.5733 278.215 12.096 277.935 12.712C277.655 13.3093 277.468 13.888 277.375 14.448C277.356 14.5787 277.338 14.6813 277.319 14.756C277.319 14.8307 277.319 14.868 277.319 14.868C277.319 15.4467 277.384 15.9787 277.515 16.464C277.646 16.9307 277.711 17.416 277.711 17.92C277.711 18.8347 277.431 19.6 276.871 20.216C276.33 20.8133 275.704 21.112 274.995 21.112ZM301.315 21.196C299.952 21.196 298.823 20.9253 297.927 20.384C297.031 19.824 296.359 19.096 295.911 18.2C295.463 17.2853 295.239 16.3053 295.239 15.26C295.239 14.2707 295.426 13.2813 295.799 12.292C296.191 11.284 296.751 10.3693 297.479 9.548C298.226 8.72667 299.122 8.064 300.167 7.56C301.231 7.056 302.426 6.804 303.751 6.804C305.394 6.804 306.588 7.17733 307.335 7.924C308.1 8.652 308.483 9.53867 308.483 10.584C308.483 11.48 308.24 12.3107 307.755 13.076C307.288 13.8227 306.663 14.4293 305.879 14.896C305.095 15.344 304.236 15.568 303.303 15.568C302.818 15.568 302.323 15.4933 301.819 15.344C301.315 15.1947 300.82 14.9613 300.335 14.644C300.428 15.8013 300.764 16.6413 301.343 17.164C301.922 17.6867 302.612 17.948 303.415 17.948C303.975 17.948 304.535 17.8453 305.095 17.64C305.655 17.416 306.168 17.136 306.635 16.8C307.12 16.4453 307.494 16.072 307.755 15.68L307.951 15.82C307.951 16.7907 307.746 17.6213 307.335 18.312C306.943 18.984 306.42 19.5347 305.767 19.964C305.114 20.3933 304.395 20.7107 303.611 20.916C302.846 21.1027 302.08 21.196 301.315 21.196ZM301.959 13.636C302.556 13.636 303.042 13.468 303.415 13.132C303.788 12.7773 304.068 12.3667 304.255 11.9C304.442 11.4333 304.535 11.0227 304.535 10.668C304.535 10.2387 304.414 9.884 304.171 9.604C303.928 9.30533 303.592 9.156 303.163 9.156C302.827 9.156 302.454 9.27733 302.043 9.52C301.651 9.76267 301.296 10.1827 300.979 10.78C300.662 11.3587 300.456 12.1707 300.363 13.216C300.96 13.496 301.492 13.636 301.959 13.636ZM313.227 21.084C312.537 21.084 311.911 20.8133 311.351 20.272C310.791 19.712 310.511 18.9373 310.511 17.948C310.511 17.4627 310.577 16.912 310.707 16.296C310.838 15.68 310.978 15.0547 311.127 14.42C311.295 13.7853 311.445 13.188 311.575 12.628C311.706 12.068 311.771 11.6107 311.771 11.256C311.771 10.8827 311.697 10.5933 311.547 10.388C311.398 10.164 311.202 10.052 310.959 10.052C310.642 10.052 310.297 10.2387 309.923 10.612L309.755 10.5C309.737 10.2013 309.802 9.84667 309.951 9.436C310.101 9.02533 310.325 8.63333 310.623 8.26C310.941 7.868 311.342 7.54133 311.827 7.28C312.313 7.01867 312.891 6.888 313.563 6.888C314.553 6.888 315.281 7.17733 315.747 7.756C316.233 8.316 316.475 9.00667 316.475 9.828C316.475 10.1267 316.447 10.416 316.391 10.696C316.783 10.1173 317.269 9.53867 317.847 8.96C318.426 8.36267 319.061 7.868 319.751 7.476C320.461 7.084 321.189 6.888 321.935 6.888C322.813 6.888 323.41 7.168 323.727 7.728C324.045 8.288 324.203 8.988 324.203 9.828C324.203 10.612 324.119 11.452 323.951 12.348C323.783 13.244 323.615 14.112 323.447 14.952C323.279 15.7733 323.195 16.464 323.195 17.024C323.195 17.7707 323.41 18.144 323.839 18.144C324.063 18.144 324.259 18.0787 324.427 17.948C324.595 17.7987 324.707 17.6587 324.763 17.528L324.959 17.612C324.959 18.3027 324.763 18.9093 324.371 19.432C323.998 19.9547 323.522 20.3653 322.943 20.664C322.365 20.944 321.777 21.084 321.179 21.084C320.451 21.084 319.807 20.832 319.247 20.328C318.687 19.824 318.407 19.0027 318.407 17.864C318.407 17.192 318.491 16.464 318.659 15.68C318.846 14.896 319.023 14.14 319.191 13.412C319.359 12.684 319.443 12.0867 319.443 11.62C319.443 11.34 319.387 11.1253 319.275 10.976C319.182 10.808 319.005 10.724 318.743 10.724C318.314 10.724 317.838 10.92 317.315 11.312C316.811 11.704 316.373 12.2267 315.999 12.88C315.645 13.5333 315.467 14.252 315.467 15.036C315.467 15.54 315.523 16.0253 315.635 16.492C315.766 16.9587 315.831 17.4627 315.831 18.004C315.831 19.012 315.57 19.7773 315.047 20.3C314.525 20.8227 313.918 21.084 313.227 21.084ZM330.47 21.112C329.873 21.112 329.304 20.9813 328.762 20.72C328.24 20.44 327.81 20.0107 327.474 19.432C327.157 18.8533 326.998 18.116 326.998 17.22C326.998 16.7347 327.045 16.1 327.138 15.316C327.232 14.532 327.353 13.6733 327.502 12.74C327.67 11.8067 327.838 10.8733 328.006 9.94C327.633 9.95867 327.269 9.996 326.914 10.052C326.578 10.108 326.242 10.1733 325.906 10.248L325.85 10.052C326.224 9.604 326.616 9.22133 327.026 8.904C327.437 8.58667 327.866 8.32533 328.314 8.12C328.557 6.888 328.762 5.824 328.93 4.928C329.098 4.01333 329.182 3.472 329.182 3.304C329.182 2.98667 329.425 2.72533 329.91 2.52C330.414 2.31467 330.974 2.212 331.59 2.212C332.132 2.212 332.636 2.31467 333.102 2.52C333.588 2.72533 333.914 3.07067 334.082 3.556C333.97 3.668 333.812 4.088 333.606 4.816C333.401 5.52533 333.186 6.39333 332.962 7.42C333.317 7.43867 333.681 7.45733 334.054 7.476C334.428 7.49467 334.81 7.52267 335.202 7.56C335.24 7.672 335.268 7.79333 335.286 7.924C335.305 8.05467 335.314 8.19467 335.314 8.344C335.314 8.624 335.268 8.932 335.174 9.268C335.1 9.58533 335.006 9.87467 334.894 10.136C334.446 10.0987 334.026 10.0613 333.634 10.024C333.242 9.968 332.86 9.93067 332.486 9.912C332.337 10.7147 332.197 11.5173 332.066 12.32C331.954 13.1227 331.861 13.8507 331.786 14.504C331.73 15.1573 331.702 15.6707 331.702 16.044C331.702 16.828 331.842 17.3507 332.122 17.612C332.421 17.8733 332.776 18.004 333.186 18.004C333.56 18.004 333.896 17.9293 334.194 17.78C334.493 17.6307 334.708 17.4533 334.838 17.248L335.118 17.332C335.006 18.0973 334.708 18.7693 334.222 19.348C333.737 19.908 333.158 20.3467 332.486 20.664C331.814 20.9627 331.142 21.112 330.47 21.112ZM341.125 21.252C339.968 21.252 339.007 21.0933 338.241 20.776C337.476 20.4587 336.907 20.0573 336.533 19.572C336.16 19.068 335.973 18.564 335.973 18.06C335.973 17.3507 336.291 16.7253 336.925 16.184C337.56 15.624 338.419 15.344 339.501 15.344C339.501 16.296 339.623 17.0613 339.865 17.64C340.108 18.2 340.416 18.6013 340.789 18.844C341.181 19.0867 341.555 19.208 341.909 19.208C342.339 19.208 342.693 19.0867 342.973 18.844C343.272 18.5827 343.421 18.2653 343.421 17.892C343.421 17.3693 343.151 16.912 342.609 16.52C342.068 16.128 341.368 15.6893 340.509 15.204C340.08 14.9427 339.613 14.644 339.109 14.308C338.605 13.9533 338.176 13.5333 337.821 13.048C337.467 12.544 337.289 11.9467 337.289 11.256C337.289 10.528 337.495 9.884 337.905 9.324C338.335 8.764 338.895 8.29733 339.585 7.924C340.276 7.532 341.023 7.24267 341.825 7.056C342.628 6.85067 343.412 6.748 344.177 6.748C345.615 6.748 346.697 7.03733 347.425 7.616C348.153 8.19467 348.517 8.81067 348.517 9.464C348.517 10.024 348.237 10.528 347.677 10.976C347.117 11.424 346.259 11.648 345.101 11.648C345.12 10.696 344.924 10.0053 344.513 9.576C344.103 9.128 343.664 8.904 343.197 8.904C342.861 8.904 342.581 9.00667 342.357 9.212C342.133 9.41733 342.021 9.716 342.021 10.108C342.021 10.556 342.161 10.948 342.441 11.284C342.74 11.6013 343.104 11.8907 343.533 12.152C343.981 12.3947 344.439 12.628 344.905 12.852C345.54 13.1507 346.137 13.468 346.697 13.804C347.257 14.14 347.715 14.5227 348.069 14.952C348.424 15.3813 348.601 15.904 348.601 16.52C348.601 17.36 348.256 18.144 347.565 18.872C346.893 19.5813 345.988 20.16 344.849 20.608C343.711 21.0373 342.469 21.252 341.125 21.252ZM131.655 57.112C130.964 57.112 130.33 56.832 129.751 56.272C129.191 55.712 128.911 54.8253 128.911 53.612C128.911 52.3987 129.023 51.232 129.247 50.112C129.49 48.9733 129.76 47.8813 130.059 46.836C130.376 45.7907 130.647 44.8013 130.871 43.868C131.114 42.916 131.235 42.02 131.235 41.18C130.955 41.068 130.694 41.012 130.451 41.012C130.115 41.012 129.835 41.1147 129.611 41.32C129.387 41.5253 129.21 41.8053 129.079 42.16L128.799 42.076C128.818 40.7693 129.004 39.7333 129.359 38.968C129.732 38.184 130.208 37.624 130.787 37.288C131.366 36.952 131.963 36.784 132.579 36.784C133.512 36.784 134.343 37.092 135.071 37.708C135.818 38.3053 136.48 39.1267 137.059 40.172C137.656 41.2173 138.17 42.4027 138.599 43.728C139.047 45.0347 139.43 46.4067 139.747 47.844C140.064 49.2627 140.316 50.6627 140.503 52.044C140.615 51.2973 140.727 50.3827 140.839 49.3C140.97 48.2173 141.082 47.0787 141.175 45.884C141.268 44.6893 141.315 43.5507 141.315 42.468C141.315 41.684 141.287 40.9747 141.231 40.34C141.175 39.6867 141.082 39.1267 140.951 38.66V38.436C141.436 37.8947 141.922 37.484 142.407 37.204C142.911 36.924 143.378 36.784 143.807 36.784C144.442 36.784 144.964 37.064 145.375 37.624C145.804 38.1653 146.019 38.94 146.019 39.948C146.019 40.6947 145.916 41.6093 145.711 42.692C145.506 43.756 145.263 44.8947 144.983 46.108C144.703 47.3213 144.451 48.516 144.227 49.692C144.022 50.8493 143.91 51.8947 143.891 52.828C143.891 53.0893 143.91 53.3693 143.947 53.668C143.984 53.9667 144.18 54.116 144.535 54.116C144.554 54.1907 144.563 54.2467 144.563 54.284C144.563 54.3213 144.563 54.3587 144.563 54.396C144.544 55.1053 144.255 55.74 143.695 56.3C143.135 56.8413 142.388 57.112 141.455 57.112C140.727 57.112 140.111 56.9253 139.607 56.552C139.103 56.1787 138.683 55.684 138.347 55.068C138.011 54.4333 137.722 53.724 137.479 52.94C137.255 52.1373 137.04 51.316 136.835 50.476C136.462 49.02 136.07 47.6387 135.659 46.332C135.267 45.0067 134.735 43.7933 134.063 42.692C134.1 43.4387 134.072 44.26 133.979 45.156C133.886 46.0333 133.783 46.9293 133.671 47.844C133.578 48.74 133.531 49.608 133.531 50.448C133.531 51.1947 133.596 51.8853 133.727 52.52C133.858 53.136 134.091 53.6867 134.427 54.172C134.427 55.0867 134.138 55.8053 133.559 56.328C132.98 56.8507 132.346 57.112 131.655 57.112ZM153.659 57.196C152.296 57.196 151.167 56.9253 150.271 56.384C149.375 55.824 148.703 55.096 148.255 54.2C147.807 53.2853 147.583 52.3053 147.583 51.26C147.583 50.2707 147.769 49.2813 148.143 48.292C148.535 47.284 149.095 46.3693 149.823 45.548C150.569 44.7267 151.465 44.064 152.511 43.56C153.575 43.056 154.769 42.804 156.095 42.804C157.737 42.804 158.932 43.1773 159.679 43.924C160.444 44.652 160.827 45.5387 160.827 46.584C160.827 47.48 160.584 48.3107 160.099 49.076C159.632 49.8227 159.007 50.4293 158.223 50.896C157.439 51.344 156.58 51.568 155.647 51.568C155.161 51.568 154.667 51.4933 154.163 51.344C153.659 51.1947 153.164 50.9613 152.679 50.644C152.772 51.8013 153.108 52.6413 153.687 53.164C154.265 53.6867 154.956 53.948 155.759 53.948C156.319 53.948 156.879 53.8453 157.439 53.64C157.999 53.416 158.512 53.136 158.979 52.8C159.464 52.4453 159.837 52.072 160.099 51.68L160.295 51.82C160.295 52.7907 160.089 53.6213 159.679 54.312C159.287 54.984 158.764 55.5347 158.111 55.964C157.457 56.3933 156.739 56.7107 155.955 56.916C155.189 57.1027 154.424 57.196 153.659 57.196ZM154.303 49.636C154.9 49.636 155.385 49.468 155.759 49.132C156.132 48.7773 156.412 48.3667 156.599 47.9C156.785 47.4333 156.879 47.0227 156.879 46.668C156.879 46.2387 156.757 45.884 156.515 45.604C156.272 45.3053 155.936 45.156 155.507 45.156C155.171 45.156 154.797 45.2773 154.387 45.52C153.995 45.7627 153.64 46.1827 153.323 46.78C153.005 47.3587 152.8 48.1707 152.707 49.216C153.304 49.496 153.836 49.636 154.303 49.636ZM172.487 57.14C171.834 57.14 171.264 56.9253 170.779 56.496C170.294 56.0667 170.051 55.3667 170.051 54.396C170.051 54.3027 170.051 54.2093 170.051 54.116C170.051 54.0227 170.06 53.9293 170.079 53.836C169.519 54.956 168.884 55.7867 168.175 56.328C167.484 56.8507 166.784 57.112 166.075 57.112C165.422 57.112 164.806 56.888 164.227 56.44C163.648 55.9733 163.182 55.292 162.827 54.396C162.472 53.5 162.295 52.4173 162.295 51.148C162.295 49.8413 162.472 48.6747 162.827 47.648C163.2 46.6213 163.686 45.7533 164.283 45.044C164.88 44.3347 165.534 43.8027 166.243 43.448C166.952 43.0747 167.643 42.888 168.315 42.888C169.062 42.888 169.734 43.1213 170.331 43.588C170.928 44.036 171.339 44.7547 171.563 45.744C171.619 45.4267 171.656 45.1373 171.675 44.876C171.712 44.6147 171.731 44.4373 171.731 44.344C171.75 43.84 172.002 43.4667 172.487 43.224C172.991 42.9813 173.542 42.86 174.139 42.86C174.662 42.86 175.156 42.9627 175.623 43.168C176.09 43.3733 176.407 43.7187 176.575 44.204L176.631 44.372C176.407 44.876 176.183 45.4827 175.959 46.192C175.735 46.9013 175.53 47.648 175.343 48.432C175.156 49.1973 175.007 49.9533 174.895 50.7C174.783 51.428 174.727 52.072 174.727 52.632C174.727 53.248 174.792 53.6773 174.923 53.92C175.054 54.144 175.212 54.256 175.399 54.256C175.716 54.256 176.006 54.032 176.267 53.584L176.491 53.696C176.491 54.3307 176.286 54.9093 175.875 55.432C175.464 55.9547 174.951 56.3747 174.335 56.692C173.719 56.9907 173.103 57.14 172.487 57.14ZM167.923 53.584C168.408 53.584 168.94 53.1547 169.519 52.296C170.116 51.4187 170.63 50.168 171.059 48.544C171.096 48.376 171.134 48.2173 171.171 48.068C171.208 47.9 171.236 47.7413 171.255 47.592C170.956 46.9013 170.639 46.416 170.303 46.136C169.986 45.8373 169.668 45.688 169.351 45.688C168.884 45.688 168.446 45.94 168.035 46.444C167.643 46.9293 167.316 47.5453 167.055 48.292C166.812 49.0387 166.691 49.7853 166.691 50.532C166.691 51.5587 166.803 52.324 167.027 52.828C167.27 53.332 167.568 53.584 167.923 53.584ZM181.376 57.112C180.704 57.112 180.106 56.8413 179.584 56.3C179.061 55.74 178.8 54.956 178.8 53.948C178.8 53.4627 178.856 52.912 178.968 52.296C179.08 51.68 179.21 51.0547 179.36 50.42C179.509 49.7667 179.64 49.16 179.752 48.6C179.864 48.0213 179.92 47.5453 179.92 47.172C179.92 46.78 179.845 46.472 179.696 46.248C179.565 46.0053 179.388 45.884 179.164 45.884C178.809 45.884 178.445 46.1267 178.072 46.612L177.904 46.5C177.885 46.2013 177.95 45.8467 178.1 45.436C178.249 45.0253 178.482 44.6333 178.8 44.26C179.117 43.868 179.518 43.5413 180.004 43.28C180.508 43.0187 181.096 42.888 181.768 42.888C182.757 42.888 183.476 43.1773 183.924 43.756C184.372 44.316 184.596 44.9973 184.596 45.8C184.596 45.9307 184.586 46.0707 184.568 46.22C184.568 46.3507 184.558 46.4813 184.54 46.612C185.212 45.3987 185.912 44.4747 186.64 43.84C187.386 43.1867 188.077 42.86 188.712 42.86C189.309 42.86 189.748 43.0933 190.028 43.56C190.308 44.0267 190.448 44.5867 190.448 45.24C190.448 45.8373 190.326 46.444 190.084 47.06C189.86 47.676 189.514 48.1893 189.048 48.6C188.6 48.992 188.049 49.1787 187.396 49.16L187.284 49.104C187.265 48.6187 187.106 48.236 186.808 47.956C186.509 47.676 186.173 47.536 185.8 47.536C185.296 47.536 184.82 47.788 184.372 48.292C183.942 48.796 183.728 49.524 183.728 50.476C183.728 51.0547 183.793 51.68 183.924 52.352C184.054 53.024 184.12 53.5933 184.12 54.06C184.12 54.62 183.989 55.1333 183.728 55.6C183.466 56.0667 183.13 56.44 182.72 56.72C182.309 56.9813 181.861 57.112 181.376 57.112ZM198.479 57.112C197.733 57.112 197.051 56.9533 196.435 56.636C195.819 56.3 195.315 55.8147 194.923 55.18C194.905 55.5347 194.774 55.8613 194.531 56.16C194.289 56.4587 193.831 56.608 193.159 56.608C192.413 56.608 191.862 56.4027 191.507 55.992C191.153 55.5813 190.975 55.04 190.975 54.368C190.975 53.9573 191.031 53.3693 191.143 52.604C191.255 51.82 191.386 50.9427 191.535 49.972C191.703 49.0013 191.862 47.9933 192.011 46.948C192.179 45.9027 192.319 44.8853 192.431 43.896C192.543 42.9067 192.599 42.02 192.599 41.236C192.599 40.7133 192.571 40.256 192.515 39.864C192.459 39.472 192.357 39.164 192.207 38.94V38.772C192.637 38.3053 193.085 37.96 193.551 37.736C194.018 37.4933 194.466 37.372 194.895 37.372C195.53 37.372 196.071 37.624 196.519 38.128C196.967 38.632 197.191 39.4347 197.191 40.536C197.191 41.0773 197.135 41.8427 197.023 42.832C196.911 43.8027 196.771 44.7733 196.603 45.744C197.275 44.792 197.985 44.064 198.731 43.56C199.497 43.056 200.234 42.804 200.943 42.804C201.895 42.804 202.707 43.2613 203.379 44.176C204.051 45.072 204.387 46.4347 204.387 48.264C204.387 49.3467 204.257 50.42 203.995 51.484C203.753 52.5293 203.379 53.4813 202.875 54.34C202.371 55.18 201.746 55.852 200.999 56.356C200.271 56.86 199.431 57.112 198.479 57.112ZM197.079 54.284C197.677 54.284 198.181 54.0227 198.591 53.5C199.021 52.9773 199.338 52.3147 199.543 51.512C199.767 50.6907 199.879 49.8507 199.879 48.992C199.879 48.432 199.833 47.9 199.739 47.396C199.646 46.8733 199.506 46.4533 199.319 46.136C199.133 45.8 198.89 45.632 198.591 45.632C198.069 45.632 197.471 46.248 196.799 47.48C196.146 48.6933 195.633 50.42 195.259 52.66C195.595 53.7427 196.202 54.284 197.079 54.284ZM211.896 62.6C210.962 62.6 210.206 62.3107 209.628 61.732C209.068 61.172 208.788 60.4067 208.788 59.436C208.788 58.932 208.872 58.372 209.04 57.756C209.226 57.1587 209.525 56.524 209.936 55.852C209.021 55.796 208.265 55.488 207.668 54.928C207.089 54.368 206.8 53.5187 206.8 52.38C206.8 51.708 206.884 50.9893 207.052 50.224C207.238 49.44 207.416 48.712 207.584 48.04C207.752 47.3493 207.836 46.8173 207.836 46.444C207.836 46.164 207.78 45.968 207.668 45.856C207.556 45.7253 207.425 45.66 207.276 45.66C207.126 45.66 206.958 45.7253 206.772 45.856C206.604 45.968 206.473 46.1453 206.38 46.388L205.904 45.884C206.016 45.3053 206.258 44.792 206.632 44.344C207.005 43.896 207.462 43.5413 208.004 43.28C208.545 43.0187 209.105 42.888 209.684 42.888C210.337 42.888 210.906 43.1027 211.392 43.532C211.877 43.9427 212.12 44.6987 212.12 45.8C212.12 46.4907 212.036 47.2373 211.868 48.04C211.7 48.824 211.532 49.5707 211.364 50.28C211.196 50.9707 211.112 51.5213 211.112 51.932C211.112 52.3053 211.186 52.5853 211.336 52.772C211.504 52.94 211.69 53.024 211.896 53.024C212.157 53.024 212.456 52.884 212.792 52.604C213.128 52.3053 213.445 51.82 213.744 51.148C214.042 50.476 214.238 49.5707 214.332 48.432C214.369 48.0773 214.397 47.6293 214.416 47.088C214.434 46.528 214.453 46.0147 214.472 45.548C214.49 45.0627 214.5 44.764 214.5 44.652C214.5 43.98 214.742 43.5133 215.228 43.252C215.732 42.972 216.282 42.832 216.88 42.832C217.402 42.832 217.897 42.9347 218.364 43.14C218.83 43.3453 219.148 43.6907 219.316 44.176L219.372 44.344C219.204 44.4933 219.054 44.9973 218.924 45.856C218.812 46.7147 218.672 47.8627 218.504 49.3C218.392 50.2333 218.252 51.288 218.084 52.464C217.916 53.64 217.682 54.8253 217.384 56.02C217.104 57.196 216.721 58.2787 216.236 59.268C215.769 60.276 215.181 61.0787 214.472 61.676C213.762 62.292 212.904 62.6 211.896 62.6ZM211.224 59.38C211.802 59.38 212.316 58.848 212.764 57.784C213.23 56.7387 213.594 55.2453 213.856 53.304C212.661 54.8347 211.84 56.0387 211.392 56.916C210.944 57.7933 210.72 58.428 210.72 58.82C210.72 59.1933 210.888 59.38 211.224 59.38ZM222.279 57.168C221.514 57.168 220.879 56.9253 220.375 56.44C219.871 55.9547 219.619 55.3573 219.619 54.648C219.619 53.8453 219.909 53.164 220.487 52.604C221.085 52.0253 221.813 51.736 222.671 51.736C223.437 51.736 224.071 51.9787 224.575 52.464C225.098 52.9493 225.359 53.5467 225.359 54.256C225.359 55.0587 225.061 55.7493 224.463 56.328C223.866 56.888 223.138 57.168 222.279 57.168Z" fill="#1E1E1E"/>
</svg>
