<svg width="9" height="8" viewBox="0 0 9 8" fill="none" xmlns="http://www.w3.org/2000/svg">
<path d="M3.22009 2.58848L4.19434 0.626478C4.2227 0.569698 4.26632 0.52194 4.3203 0.48856C4.37428 0.455181 4.4365 0.4375 4.49997 0.4375C4.56344 0.4375 4.62565 0.455181 4.67963 0.48856C4.73362 0.52194 4.77723 0.569698 4.80559 0.626478L5.77984 2.58848L7.95784 2.90498C8.02066 2.91369 8.07977 2.93989 8.12842 2.98058C8.17706 3.02128 8.21329 3.07483 8.23296 3.13513C8.25263 3.19542 8.25495 3.26003 8.23965 3.32159C8.22436 3.38314 8.19207 3.43915 8.14647 3.48323L6.57072 5.00948L6.94272 7.16573C6.99034 7.44248 6.69784 7.65323 6.44772 7.52273L4.49997 6.50423L2.55184 7.52273C2.30209 7.6536 2.00959 7.44248 2.05722 7.16535L2.42922 5.0091L0.853467 3.48285C0.808087 3.43874 0.775991 3.38279 0.760829 3.32135C0.745666 3.2599 0.748044 3.19544 0.767693 3.13528C0.787342 3.07512 0.823473 3.02169 0.87198 2.98104C0.920487 2.94039 0.979424 2.91417 1.04209 2.90535L3.22009 2.58848Z" fill="#FFC42D"/>
</svg>
