<svg width="430" height="184" viewBox="0 0 430 184" fill="none" xmlns="http://www.w3.org/2000/svg">
<g clip-path="url(#clip0_13_104)">
<path d="M12.0322 161.594C12.0337 159.735 12.7765 157.952 14.0974 156.638C15.4183 155.324 17.2093 154.585 19.0766 154.585C20.944 154.585 22.735 155.324 24.0559 156.638C25.3768 157.952 26.1196 159.735 26.121 161.594" fill="#F2F2F2"/>
<path d="M19.0766 161.594C19.0261 161.594 18.9777 161.574 18.942 161.539C18.9063 161.503 18.8862 161.455 18.8862 161.405V157.708C18.8862 157.658 18.9063 157.61 18.942 157.574C18.9777 157.539 19.0261 157.519 19.0766 157.519C19.1271 157.519 19.1755 157.539 19.2112 157.574C19.247 157.61 19.267 157.658 19.267 157.708V161.405C19.267 161.455 19.2469 161.503 19.2112 161.539C19.1755 161.574 19.1271 161.594 19.0766 161.594Z" fill="#CCCCCC"/>
<path d="M19.0768 160.324C19.0314 160.324 18.9874 160.308 18.9529 160.278L16.6683 158.326C16.649 158.31 16.6332 158.29 16.6217 158.268C16.6102 158.245 16.6032 158.221 16.6012 158.196C16.5992 158.171 16.6021 158.146 16.6099 158.122C16.6177 158.098 16.6301 158.076 16.6465 158.057C16.6629 158.038 16.6829 158.023 16.7053 158.011C16.7278 158 16.7523 157.993 16.7774 157.992C16.8024 157.99 16.8276 157.993 16.8515 158.001C16.8753 158.009 16.8973 158.022 16.9163 158.038L19.2009 159.99C19.2305 160.016 19.2515 160.049 19.2613 160.087C19.271 160.124 19.269 160.164 19.2555 160.2C19.242 160.236 19.2176 160.268 19.1856 160.29C19.1537 160.312 19.1157 160.324 19.0768 160.324L19.0768 160.324Z" fill="#CCCCCC"/>
<path d="M33.7368 161.594C33.7382 159.735 34.481 157.952 35.802 156.638C37.1229 155.324 38.9139 154.585 40.7812 154.585C42.6486 154.585 44.4396 155.324 45.7605 156.638C47.0814 157.952 47.8242 159.735 47.8256 161.594" fill="#F2F2F2"/>
<path d="M40.7812 161.594C40.7307 161.594 40.6823 161.574 40.6466 161.539C40.6109 161.503 40.5908 161.455 40.5908 161.405V157.708C40.5908 157.658 40.6109 157.61 40.6466 157.574C40.6823 157.539 40.7307 157.519 40.7812 157.519C40.8317 157.519 40.8801 157.539 40.9158 157.574C40.9515 157.61 40.9716 157.658 40.9716 157.708V161.405C40.9716 161.455 40.9515 161.503 40.9158 161.539C40.8801 161.574 40.8317 161.594 40.7812 161.594Z" fill="#CCCCCC"/>
<path d="M40.7811 160.324C40.7356 160.324 40.6916 160.308 40.6572 160.278L38.3725 158.326C38.3532 158.31 38.3374 158.29 38.3259 158.268C38.3143 158.245 38.3073 158.221 38.3053 158.196C38.3033 158.171 38.3062 158.146 38.314 158.122C38.3218 158.098 38.3342 158.076 38.3506 158.057C38.367 158.038 38.387 158.023 38.4095 158.011C38.432 158 38.4565 157.993 38.4816 157.992C38.5066 157.99 38.5319 157.993 38.5557 158.001C38.5796 158.009 38.6016 158.022 38.6205 158.038L40.9052 159.991C40.9347 160.016 40.9558 160.049 40.9655 160.087C40.9753 160.124 40.9732 160.164 40.9597 160.2C40.9462 160.237 40.9218 160.268 40.8899 160.29C40.8579 160.312 40.82 160.324 40.7811 160.324L40.7811 160.324Z" fill="#CCCCCC"/>
<path d="M322.069 27.5031C329.548 27.5031 335.611 21.466 335.611 14.019C335.611 6.57194 329.548 0.534912 322.069 0.534912C314.589 0.534912 308.526 6.57194 308.526 14.019C308.526 21.466 314.589 27.5031 322.069 27.5031Z" fill="#F2F2F2"/>
<path d="M44.648 176.645C51.4475 176.645 56.9596 175.364 56.9596 173.785C56.9596 172.205 51.4475 170.924 44.648 170.924C37.8485 170.924 32.3364 172.205 32.3364 173.785C32.3364 175.364 37.8485 176.645 44.648 176.645Z" fill="#F2F2F2"/>
<path d="M38.3631 56.3725C41.592 46.3336 49.4763 38.548 58.8265 33.9174C69.9205 28.4233 82.6687 27.8012 94.7144 29.9395C107.718 32.2479 119.871 37.5693 131.635 43.3764C143.174 49.0724 154.526 55.087 166.526 59.7941C190.483 69.1781 215.875 74.415 241.605 75.2785C264.763 76.0477 289.524 73.5213 309.353 60.5613C327.522 48.6864 339.083 29.0962 345.105 8.67553C345.876 6.06121 346.561 3.42442 347.161 0.765149C347.336 -0.00300185 346.149 -0.330974 345.973 0.439278C341.116 21.7636 330.759 42.8393 313.061 56.4325C293.921 71.1343 268.8 74.533 245.292 74.1441C219.281 73.6919 193.546 68.7473 169.234 59.5305C156.926 54.8649 145.31 48.8065 133.547 42.9575C122.043 37.237 110.215 31.8821 97.5635 29.2438C86.0114 26.8347 73.6432 26.6879 62.5052 30.9748C53.3339 34.5049 44.9716 40.7969 40.0779 49.4041C38.8846 51.5135 37.9122 53.7393 37.1759 56.0466C36.9337 56.7997 38.122 57.1221 38.3631 56.3725Z" fill="#F2F2F2"/>
<path d="M214.133 150.237C214.241 150.237 214.346 150.194 214.423 150.117C214.5 150.04 214.543 149.936 214.543 149.828C214.543 149.72 214.5 149.616 214.423 149.539C214.346 149.462 214.241 149.419 214.133 149.419H210.234V147.785H214.133C214.241 147.785 214.346 147.742 214.423 147.665C214.5 147.589 214.543 147.485 214.543 147.376C214.543 147.268 214.5 147.164 214.423 147.087C214.346 147.011 214.241 146.968 214.133 146.968H180.891C180.783 146.968 180.678 147.011 180.601 147.087C180.524 147.164 180.481 147.268 180.481 147.376C180.481 147.485 180.524 147.589 180.601 147.665C180.678 147.742 180.783 147.785 180.891 147.785H184.79V149.419H180.891C180.783 149.419 180.678 149.462 180.601 149.539C180.524 149.616 180.481 149.72 180.481 149.828C180.481 149.936 180.524 150.04 180.601 150.117C180.678 150.194 180.783 150.237 180.891 150.237H184.79V151.871H180.891C180.783 151.871 180.678 151.914 180.601 151.991C180.524 152.067 180.481 152.171 180.481 152.28C180.481 152.388 180.524 152.492 180.601 152.569C180.678 152.645 180.783 152.688 180.891 152.688H184.79V154.323H181.302C181.084 154.323 180.875 154.409 180.721 154.562C180.567 154.715 180.481 154.923 180.481 155.14C180.481 155.357 180.567 155.565 180.721 155.718C180.875 155.871 181.084 155.957 181.302 155.957H184.622C184.598 156.023 184.586 156.092 184.585 156.161V161.882C184.585 162.045 184.65 162.2 184.765 162.315C184.881 162.43 185.037 162.495 185.2 162.495C185.364 162.495 185.52 162.43 185.636 162.315C185.751 162.2 185.816 162.045 185.816 161.882V156.161C185.815 156.092 185.803 156.023 185.778 155.957H209.246C209.221 156.023 209.209 156.092 209.208 156.161V161.882C209.208 162.045 209.273 162.2 209.388 162.315C209.504 162.43 209.66 162.495 209.824 162.495C209.987 162.495 210.143 162.43 210.259 162.315C210.374 162.2 210.439 162.045 210.439 161.882V156.161C210.438 156.092 210.426 156.023 210.401 155.957H213.722C213.94 155.957 214.149 155.871 214.303 155.718C214.456 155.565 214.543 155.357 214.543 155.14C214.543 154.923 214.456 154.715 214.303 154.562C214.149 154.409 213.94 154.323 213.722 154.323H210.234V152.688H214.133C214.241 152.688 214.346 152.645 214.423 152.569C214.5 152.492 214.543 152.388 214.543 152.28C214.543 152.171 214.5 152.067 214.423 151.991C214.346 151.914 214.241 151.871 214.133 151.871H210.234V150.237H214.133ZM185.611 147.785H209.413V149.419H185.611V147.785ZM209.413 154.323H185.611V152.688H209.413V154.323ZM209.413 151.871H185.611V150.237H209.413V151.871Z" fill="#3F3D56"/>
<path d="M88.9697 133.087C88.9697 125.87 83.0902 108.746 75.8374 108.746C68.5846 108.746 62.7051 125.87 62.7051 133.087C62.7051 136.554 64.0887 139.88 66.5515 142.332C69.0142 144.784 72.3545 146.162 75.8374 146.162C79.3203 146.162 82.6606 144.784 85.1234 142.332C87.5862 139.88 88.9698 136.554 88.9698 133.087H88.9697Z" fill="#E6E6E6"/>
<path d="M85.6866 133.087C85.6866 125.87 79.807 108.746 72.5542 108.746C65.3014 108.746 59.4219 125.87 59.4219 133.087C59.4219 136.554 60.8055 139.88 63.2683 142.332C65.731 144.784 69.0713 146.162 72.5542 146.162C76.0371 146.162 79.3774 144.784 81.8402 142.332C84.303 139.88 85.6866 136.554 85.6866 133.087H85.6866Z" fill="#F2F2F2"/>
<path d="M72.9646 162.323C72.8557 162.323 72.7514 162.28 72.6744 162.203C72.5974 162.127 72.5542 162.023 72.5542 161.914V125.491C72.5542 125.382 72.5974 125.278 72.6744 125.202C72.7514 125.125 72.8557 125.082 72.9646 125.082C73.0734 125.082 73.1778 125.125 73.2548 125.202C73.3317 125.278 73.375 125.382 73.375 125.491V161.914C73.375 162.023 73.3317 162.127 73.2548 162.203C73.1778 162.28 73.0734 162.323 72.9646 162.323Z" fill="#CCCCCC"/>
<path d="M72.9645 131.462C72.8833 131.462 72.804 131.438 72.7365 131.393C72.6691 131.348 72.6165 131.284 72.5854 131.21C72.5544 131.135 72.5463 131.053 72.5621 130.973C72.5779 130.894 72.617 130.821 72.6744 130.764L78.0412 125.42C78.1182 125.344 78.2226 125.301 78.3314 125.301C78.4402 125.301 78.5446 125.344 78.6215 125.42C78.6985 125.497 78.7417 125.601 78.7417 125.709C78.7417 125.818 78.6985 125.922 78.6215 125.998L73.2547 131.342C73.2166 131.38 73.1714 131.41 73.1216 131.431C73.0718 131.451 73.0184 131.462 72.9645 131.462Z" fill="#CCCCCC"/>
<path d="M223.987 162.323C223.878 162.323 223.773 162.28 223.696 162.203C223.619 162.127 223.576 162.023 223.576 161.914V125.491C223.576 125.382 223.619 125.278 223.696 125.202C223.773 125.125 223.878 125.082 223.987 125.082C224.095 125.082 224.2 125.125 224.277 125.202C224.354 125.278 224.397 125.382 224.397 125.491V161.914C224.397 162.023 224.354 162.127 224.277 162.203C224.2 162.28 224.095 162.323 223.987 162.323Z" fill="#3F3D56"/>
<path d="M267.897 133.087C267.897 125.87 262.018 108.746 254.765 108.746C247.512 108.746 241.633 125.87 241.633 133.087C241.633 136.554 243.016 139.88 245.479 142.332C247.942 144.784 251.282 146.162 254.765 146.162C258.248 146.162 261.588 144.784 264.051 142.332C266.514 139.88 267.898 136.554 267.898 133.087H267.897Z" fill="#E6E6E6"/>
<path d="M264.615 133.087C264.615 125.87 258.735 108.746 251.482 108.746C244.23 108.746 238.35 125.87 238.35 133.087C238.35 136.554 239.734 139.88 242.196 142.332C244.659 144.784 248 146.162 251.482 146.162C254.965 146.162 258.306 144.784 260.768 142.332C263.231 139.88 264.615 136.554 264.615 133.087H264.615Z" fill="#F2F2F2"/>
<path d="M251.893 162.323C251.784 162.323 251.68 162.28 251.603 162.203C251.526 162.127 251.482 162.023 251.482 161.914V125.491C251.482 125.382 251.526 125.278 251.603 125.202C251.68 125.125 251.784 125.082 251.893 125.082C252.002 125.082 252.106 125.125 252.183 125.202C252.26 125.278 252.303 125.382 252.303 125.491V161.914C252.303 162.023 252.26 162.127 252.183 162.203C252.106 162.28 252.002 162.323 251.893 162.323Z" fill="#CCCCCC"/>
<path d="M251.893 131.462C251.812 131.462 251.732 131.438 251.665 131.393C251.597 131.348 251.545 131.284 251.514 131.21C251.483 131.135 251.474 131.053 251.49 130.973C251.506 130.894 251.545 130.821 251.603 130.764L256.969 125.42C257.046 125.344 257.151 125.301 257.26 125.301C257.368 125.301 257.473 125.344 257.55 125.42C257.627 125.497 257.67 125.601 257.67 125.709C257.67 125.818 257.627 125.922 257.55 125.998L252.183 131.342C252.145 131.38 252.1 131.41 252.05 131.431C252 131.451 251.947 131.462 251.893 131.462Z" fill="#CCCCCC"/>
<path d="M116.466 21.1695H109.899C109.41 21.169 108.94 20.9751 108.594 20.6304C108.248 20.2857 108.053 19.8183 108.053 19.3308V4.21227C108.053 3.72478 108.248 3.2574 108.594 2.91269C108.94 2.56798 109.41 2.37408 109.899 2.37354H116.466C116.955 2.37408 117.425 2.56798 117.771 2.91269C118.117 3.2574 118.312 3.72478 118.312 4.21227V19.3308C118.312 19.8183 118.117 20.2857 117.771 20.6304C117.425 20.9751 116.955 21.169 116.466 21.1695Z" fill="#E6E6E6"/>
<path d="M142.32 162.14H108.668C107.743 162.139 106.856 161.772 106.203 161.121C105.549 160.47 105.181 159.587 105.18 158.666V23.417C105.181 22.4962 105.549 21.6134 106.203 20.9623C106.856 20.3111 107.743 19.9449 108.668 19.9438H142.32C143.244 19.9449 144.131 20.3111 144.785 20.9623C145.439 21.6134 145.807 22.4962 145.808 23.417V158.666C145.807 159.587 145.439 160.47 144.785 161.121C144.131 161.772 143.244 162.139 142.32 162.14Z" fill="#E6E6E6"/>
<path d="M122.211 162.14H88.5591C87.6342 162.139 86.7476 161.772 86.0936 161.121C85.4397 160.47 85.0718 159.587 85.0708 158.666V23.417C85.0718 22.4962 85.4397 21.6134 86.0936 20.9623C86.7476 20.3111 87.6342 19.9449 88.5591 19.9438H122.211C123.136 19.9449 124.022 20.3111 124.676 20.9623C125.33 21.6134 125.698 22.4962 125.699 23.417V158.666C125.698 159.587 125.33 160.47 124.676 161.121C124.022 161.772 123.136 162.139 122.211 162.14Z" fill="#F2F2F2"/>
<path d="M110.31 21.1695H103.744C103.254 21.169 102.785 20.9751 102.438 20.6304C102.092 20.2857 101.898 19.8183 101.897 19.3308V4.21227C101.898 3.72478 102.092 3.2574 102.438 2.91269C102.785 2.56798 103.254 2.37408 103.744 2.37354H110.31C110.799 2.37408 111.269 2.56798 111.615 2.91269C111.961 3.2574 112.156 3.72478 112.157 4.21227V19.3308C112.156 19.8183 111.961 20.2857 111.615 20.6304C111.269 20.9751 110.799 21.169 110.31 21.1695Z" fill="#F2F2F2"/>
<path d="M101.691 50.5895H93.8941C93.6221 50.5892 93.3613 50.4814 93.169 50.2899C92.9767 50.0984 92.8685 49.8388 92.8682 49.5679V37.7183C92.8685 37.4475 92.9767 37.1878 93.169 36.9963C93.3613 36.8048 93.6221 36.6971 93.8941 36.6968H101.691C101.963 36.6971 102.224 36.8048 102.417 36.9963C102.609 37.1878 102.717 37.4475 102.717 37.7183V49.5679C102.717 49.8388 102.609 50.0984 102.417 50.2899C102.224 50.4814 101.963 50.5892 101.691 50.5895Z" fill="white"/>
<path d="M116.876 50.5895H109.079C108.807 50.5892 108.546 50.4814 108.354 50.2899C108.161 50.0984 108.053 49.8388 108.053 49.5679V37.7183C108.053 37.4475 108.161 37.1878 108.354 36.9963C108.546 36.8048 108.807 36.6971 109.079 36.6968H116.876C117.148 36.6971 117.409 36.8048 117.601 36.9963C117.793 37.1878 117.902 37.4475 117.902 37.7183V49.5679C117.902 49.8388 117.793 50.0984 117.601 50.2899C117.409 50.4814 117.148 50.5892 116.876 50.5895Z" fill="white"/>
<path d="M101.691 72.2457H93.8941C93.6221 72.2454 93.3613 72.1377 93.169 71.9462C92.9767 71.7547 92.8685 71.495 92.8682 71.2242V59.3745C92.8685 59.1037 92.9767 58.8441 93.169 58.6526C93.3613 58.4611 93.6221 58.3533 93.8941 58.353H101.691C101.963 58.3533 102.224 58.4611 102.417 58.6526C102.609 58.8441 102.717 59.1037 102.717 59.3745V71.2242C102.717 71.495 102.609 71.7547 102.417 71.9462C102.224 72.1377 101.963 72.2454 101.691 72.2457Z" fill="white"/>
<path d="M116.876 72.2457H109.079C108.807 72.2454 108.546 72.1377 108.354 71.9462C108.161 71.7547 108.053 71.495 108.053 71.2242V59.3745C108.053 59.1037 108.161 58.8441 108.354 58.6526C108.546 58.4611 108.807 58.3533 109.079 58.353H116.876C117.148 58.3533 117.409 58.4611 117.601 58.6526C117.793 58.8441 117.902 59.1037 117.902 59.3745V71.2242C117.902 71.495 117.793 71.7547 117.601 71.9462C117.409 72.1377 117.148 72.2454 116.876 72.2457Z" fill="white"/>
<path d="M101.691 93.902H93.8941C93.6221 93.9017 93.3613 93.7939 93.169 93.6024C92.9767 93.4109 92.8685 93.1513 92.8682 92.8804V81.0308C92.8685 80.76 92.9767 80.5003 93.169 80.3088C93.3613 80.1173 93.6221 80.0096 93.8941 80.0093H101.691C101.963 80.0096 102.224 80.1173 102.417 80.3088C102.609 80.5003 102.717 80.76 102.717 81.0308V92.8804C102.717 93.1513 102.609 93.4109 102.417 93.6024C102.224 93.7939 101.963 93.9017 101.691 93.902Z" fill="white"/>
<path d="M116.876 93.902H109.079C108.807 93.9017 108.546 93.7939 108.354 93.6024C108.161 93.4109 108.053 93.1513 108.053 92.8804V81.0308C108.053 80.76 108.161 80.5003 108.354 80.3088C108.546 80.1173 108.807 80.0096 109.079 80.0093H116.876C117.148 80.0096 117.409 80.1173 117.601 80.3088C117.793 80.5003 117.902 80.76 117.902 81.0308V92.8804C117.902 93.1513 117.793 93.4109 117.601 93.6024C117.409 93.7939 117.148 93.9017 116.876 93.902Z" fill="white"/>
<path d="M101.691 115.558H93.8941C93.6221 115.558 93.3613 115.45 93.169 115.259C92.9767 115.067 92.8685 114.808 92.8682 114.537V102.687C92.8685 102.416 92.9767 102.157 93.169 101.965C93.3613 101.774 93.6221 101.666 93.8941 101.666H101.691C101.963 101.666 102.224 101.774 102.417 101.965C102.609 102.157 102.717 102.416 102.717 102.687V114.537C102.717 114.808 102.609 115.067 102.417 115.259C102.224 115.45 101.963 115.558 101.691 115.558Z" fill="white"/>
<path d="M116.876 115.558H109.079C108.807 115.558 108.546 115.45 108.354 115.259C108.161 115.067 108.053 114.808 108.053 114.537V102.687C108.053 102.416 108.161 102.157 108.354 101.965C108.546 101.774 108.807 101.666 109.079 101.666H116.876C117.148 101.666 117.409 101.774 117.601 101.965C117.793 102.157 117.902 102.416 117.902 102.687V114.537C117.902 114.808 117.793 115.067 117.601 115.259C117.409 115.45 117.148 115.558 116.876 115.558Z" fill="white"/>
<path d="M101.691 137.214H93.8941C93.6221 137.214 93.3613 137.106 93.169 136.915C92.9767 136.723 92.8685 136.464 92.8682 136.193V124.343C92.8685 124.072 92.9767 123.813 93.169 123.621C93.3613 123.43 93.6221 123.322 93.8941 123.322H101.691C101.963 123.322 102.224 123.43 102.417 123.621C102.609 123.813 102.717 124.072 102.717 124.343V136.193C102.717 136.464 102.609 136.723 102.417 136.915C102.224 137.106 101.963 137.214 101.691 137.214Z" fill="white"/>
<path d="M116.876 137.214H109.079C108.807 137.214 108.546 137.106 108.354 136.915C108.161 136.723 108.053 136.464 108.053 136.193V124.343C108.053 124.072 108.161 123.813 108.354 123.621C108.546 123.43 108.807 123.322 109.079 123.322H116.876C117.148 123.322 117.409 123.43 117.601 123.621C117.793 123.813 117.902 124.072 117.902 124.343V136.193C117.902 136.464 117.793 136.723 117.601 136.915C117.409 137.106 117.148 137.214 116.876 137.214Z" fill="white"/>
<path d="M285.955 92.676H279.389C278.899 92.6754 278.43 92.4815 278.084 92.1368C277.737 91.7921 277.543 91.3247 277.542 90.8372V82.2565C277.543 81.769 277.737 81.3016 278.084 80.9569C278.43 80.6122 278.899 80.4183 279.389 80.4177H285.955C286.444 80.4183 286.914 80.6122 287.26 80.9569C287.606 81.3016 287.801 81.769 287.802 82.2565V90.8372C287.801 91.3247 287.606 91.7921 287.26 92.1368C286.914 92.4815 286.444 92.6754 285.955 92.676Z" fill="#E6E6E6"/>
<path d="M341.357 162.548H307.705C306.78 162.547 305.894 162.181 305.24 161.53C304.586 160.879 304.218 159.996 304.217 159.075V94.1062C304.218 93.1854 304.586 92.3026 305.24 91.6515C305.894 91.0003 306.78 90.6341 307.705 90.6331H341.357C342.282 90.6341 343.168 91.0003 343.822 91.6515C344.476 92.3026 344.844 93.1854 344.845 94.1062V159.075C344.844 159.996 344.476 160.879 343.822 161.53C343.168 162.181 342.282 162.547 341.357 162.548Z" fill="#E6E6E6"/>
<path d="M321.248 162.548H262.973C262.048 162.547 261.162 162.181 260.508 161.53C259.854 160.879 259.486 159.996 259.485 159.075V94.1062C259.486 93.1854 259.854 92.3026 260.508 91.6515C261.162 91.0003 262.048 90.6341 262.973 90.6331H321.248C322.173 90.6341 323.059 91.0003 323.713 91.6515C324.367 92.3026 324.735 93.1854 324.736 94.1062V159.075C324.735 159.996 324.367 160.879 323.713 161.53C323.059 162.181 322.173 162.547 321.248 162.548Z" fill="#F2F2F2"/>
<path d="M279.799 92.676H273.233C272.743 92.6754 272.274 92.4815 271.928 92.1368C271.582 91.7921 271.387 91.3247 271.386 90.8372V82.2565C271.387 81.769 271.582 81.3016 271.928 80.9569C272.274 80.6122 272.743 80.4183 273.233 80.4177H279.799C280.289 80.4183 280.758 80.6122 281.104 80.9569C281.451 81.3016 281.645 81.769 281.646 82.2565V90.8372C281.645 91.3247 281.451 91.7921 281.104 92.1368C280.758 92.4815 280.289 92.6754 279.799 92.676Z" fill="#F2F2F2"/>
<path d="M288.417 122.709H280.62C280.348 122.708 280.087 122.601 279.895 122.409C279.702 122.218 279.594 121.958 279.594 121.687V109.837C279.594 109.567 279.702 109.307 279.895 109.115C280.087 108.924 280.348 108.816 280.62 108.816H288.417C288.689 108.816 288.95 108.924 289.142 109.115C289.334 109.307 289.443 109.567 289.443 109.837V121.687C289.443 121.958 289.334 122.218 289.142 122.409C288.95 122.601 288.689 122.708 288.417 122.709Z" fill="white"/>
<path d="M303.601 122.709H295.804C295.532 122.708 295.271 122.601 295.079 122.409C294.886 122.218 294.778 121.958 294.778 121.687V109.837C294.778 109.567 294.886 109.307 295.079 109.115C295.271 108.924 295.532 108.816 295.804 108.816H303.601C303.873 108.816 304.134 108.924 304.326 109.115C304.519 109.307 304.627 109.567 304.627 109.837V121.687C304.627 121.958 304.519 122.218 304.326 122.409C304.134 122.601 303.873 122.708 303.601 122.709Z" fill="white"/>
<path d="M288.417 144.365H280.62C280.348 144.365 280.087 144.257 279.895 144.065C279.702 143.874 279.594 143.614 279.594 143.343V131.494C279.594 131.223 279.702 130.963 279.895 130.772C280.087 130.58 280.348 130.472 280.62 130.472H288.417C288.689 130.472 288.95 130.58 289.142 130.772C289.334 130.963 289.443 131.223 289.443 131.494V143.343C289.443 143.614 289.334 143.874 289.142 144.065C288.95 144.257 288.689 144.365 288.417 144.365Z" fill="white"/>
<path d="M303.601 144.365H295.804C295.532 144.365 295.271 144.257 295.079 144.065C294.886 143.874 294.778 143.614 294.778 143.343V131.494C294.778 131.223 294.886 130.963 295.079 130.772C295.271 130.58 295.532 130.472 295.804 130.472H303.601C303.873 130.472 304.134 130.58 304.326 130.772C304.519 130.963 304.627 131.223 304.627 131.494V143.343C304.627 143.614 304.519 143.874 304.326 144.065C304.134 144.257 303.873 144.365 303.601 144.365Z" fill="white"/>
<path d="M429.59 162.752H0.410385C0.301544 162.752 0.197161 162.709 0.120199 162.633C0.0432366 162.556 0 162.452 0 162.344C0 162.235 0.0432366 162.131 0.120199 162.055C0.197161 161.978 0.301544 161.935 0.410385 161.935H429.59C429.698 161.935 429.803 161.978 429.88 162.055C429.957 162.131 430 162.235 430 162.344C430 162.452 429.957 162.556 429.88 162.633C429.803 162.709 429.698 162.752 429.59 162.752Z" fill="#E6E6E6"/>
<path d="M148.886 177.054H110.72C110.611 177.054 110.507 177.01 110.43 176.934C110.353 176.857 110.31 176.753 110.31 176.645C110.31 176.537 110.353 176.433 110.43 176.356C110.507 176.279 110.611 176.236 110.72 176.236H148.886C148.995 176.236 149.099 176.279 149.176 176.356C149.253 176.433 149.296 176.537 149.296 176.645C149.296 176.753 149.253 176.857 149.176 176.934C149.099 177.01 148.995 177.054 148.886 177.054Z" fill="#E6E6E6"/>
<path d="M243.685 177.054H205.519C205.41 177.054 205.306 177.01 205.229 176.934C205.152 176.857 205.109 176.753 205.109 176.645C205.109 176.537 205.152 176.433 205.229 176.356C205.306 176.279 205.41 176.236 205.519 176.236H243.685C243.794 176.236 243.898 176.279 243.975 176.356C244.052 176.433 244.096 176.537 244.096 176.645C244.096 176.753 244.052 176.857 243.975 176.934C243.898 177.01 243.794 177.054 243.685 177.054Z" fill="#E6E6E6"/>
<path d="M338.484 177.054H300.318C300.209 177.054 300.105 177.01 300.028 176.934C299.951 176.857 299.908 176.753 299.908 176.645C299.908 176.537 299.951 176.433 300.028 176.356C300.105 176.279 300.209 176.236 300.318 176.236H338.484C338.593 176.236 338.697 176.279 338.774 176.356C338.851 176.433 338.894 176.537 338.894 176.645C338.894 176.753 338.851 176.857 338.774 176.934C338.697 177.01 338.593 177.054 338.484 177.054Z" fill="#E6E6E6"/>
<path d="M170.636 133.087C170.636 125.87 164.757 108.746 157.504 108.746C150.251 108.746 144.372 125.87 144.372 133.087C144.372 136.554 145.755 139.88 148.218 142.332C150.681 144.784 154.021 146.162 157.504 146.162C160.987 146.162 164.327 144.784 166.79 142.332C169.253 139.88 170.636 136.554 170.636 133.087H170.636Z" fill="#E6E6E6"/>
<path d="M167.353 133.087C167.353 125.87 161.474 108.746 154.221 108.746C146.968 108.746 141.088 125.87 141.088 133.087C141.088 136.554 142.472 139.88 144.935 142.332C147.398 144.784 150.738 146.162 154.221 146.162C157.704 146.162 161.044 144.784 163.507 142.332C165.97 139.88 167.353 136.554 167.353 133.087Z" fill="#F2F2F2"/>
<path d="M154.631 162.323C154.522 162.323 154.418 162.28 154.341 162.203C154.264 162.127 154.221 162.023 154.221 161.914V125.491C154.221 125.382 154.264 125.278 154.341 125.202C154.418 125.125 154.522 125.082 154.631 125.082C154.74 125.082 154.844 125.125 154.921 125.202C154.998 125.278 155.041 125.382 155.041 125.491V161.914C155.041 162.023 154.998 162.127 154.921 162.203C154.844 162.28 154.74 162.323 154.631 162.323Z" fill="#CCCCCC"/>
<path d="M154.631 131.462C154.55 131.462 154.471 131.438 154.404 131.393C154.336 131.348 154.283 131.284 154.252 131.21C154.221 131.135 154.213 131.053 154.229 130.973C154.245 130.894 154.284 130.821 154.341 130.764L159.708 125.42C159.785 125.344 159.89 125.301 159.998 125.301C160.107 125.301 160.212 125.344 160.289 125.42C160.365 125.497 160.409 125.601 160.409 125.709C160.409 125.818 160.365 125.922 160.289 125.998L154.922 131.342C154.884 131.38 154.838 131.41 154.789 131.431C154.739 131.451 154.685 131.462 154.631 131.462Z" fill="#CCCCCC"/>
<path d="M380.343 133.087C380.343 125.87 374.464 108.746 367.211 108.746C359.958 108.746 354.079 125.87 354.079 133.087C354.079 136.554 355.462 139.88 357.925 142.332C360.388 144.784 363.728 146.162 367.211 146.162C370.694 146.162 374.034 144.784 376.497 142.332C378.96 139.88 380.343 136.554 380.343 133.087H380.343Z" fill="#E6E6E6"/>
<path d="M377.06 133.087C377.06 125.87 371.181 108.746 363.928 108.746C356.675 108.746 350.795 125.87 350.795 133.087C350.795 136.554 352.179 139.88 354.642 142.332C357.105 144.784 360.445 146.162 363.928 146.162C367.411 146.162 370.751 144.784 373.214 142.332C375.677 139.88 377.06 136.554 377.06 133.087H377.06Z" fill="#F2F2F2"/>
<path d="M364.338 162.323C364.229 162.323 364.125 162.28 364.048 162.203C363.971 162.127 363.928 162.023 363.928 161.914V125.491C363.928 125.382 363.971 125.278 364.048 125.202C364.125 125.125 364.229 125.082 364.338 125.082C364.447 125.082 364.551 125.125 364.628 125.202C364.705 125.278 364.748 125.382 364.748 125.491V161.914C364.748 162.023 364.705 162.127 364.628 162.203C364.551 162.28 364.447 162.323 364.338 162.323Z" fill="#CCCCCC"/>
<path d="M364.339 131.462C364.257 131.462 364.178 131.438 364.111 131.393C364.043 131.348 363.991 131.284 363.959 131.21C363.928 131.135 363.92 131.053 363.936 130.973C363.952 130.894 363.991 130.821 364.048 130.764L369.415 125.42C369.492 125.344 369.597 125.301 369.705 125.301C369.814 125.301 369.919 125.344 369.996 125.42C370.073 125.497 370.116 125.601 370.116 125.709C370.116 125.818 370.073 125.922 369.996 125.998L364.629 131.342C364.591 131.38 364.545 131.41 364.496 131.431C364.446 131.451 364.392 131.462 364.339 131.462Z" fill="#CCCCCC"/>
<path d="M228.501 137.623H219.472C219.2 137.623 218.939 137.515 218.747 137.323C218.555 137.132 218.447 136.872 218.446 136.601V127.612C218.447 127.341 218.555 127.081 218.747 126.89C218.939 126.698 219.2 126.591 219.472 126.59H228.501C228.773 126.591 229.034 126.698 229.226 126.89C229.418 127.081 229.526 127.341 229.527 127.612V136.601C229.526 136.872 229.418 137.132 229.226 137.323C229.034 137.515 228.773 137.623 228.501 137.623Z" fill="#3F3D56"/>
<path d="M316.145 142.001C316.244 142.026 316.336 142.073 316.414 142.138C316.492 142.203 316.556 142.284 316.599 142.376C316.643 142.468 316.665 142.568 316.666 142.67C316.666 142.771 316.644 142.872 316.601 142.964L318.385 144.677L317.128 144.958L315.627 143.288C315.476 143.206 315.361 143.072 315.303 142.911C315.244 142.75 315.248 142.574 315.312 142.415C315.376 142.256 315.496 142.126 315.649 142.05C315.803 141.974 315.979 141.956 316.145 142.001H316.145Z" fill="#FFB8B8"/>
<path d="M318.654 146.508L316.453 144.452C316.423 144.423 316.398 144.389 316.381 144.351C316.364 144.313 316.355 144.273 316.355 144.231C316.354 144.19 316.361 144.148 316.377 144.11C316.392 144.071 316.415 144.036 316.445 144.007L316.894 143.553C316.947 143.5 317.019 143.467 317.094 143.462C317.17 143.457 317.245 143.479 317.306 143.525L319.15 144.929L320.301 142.149C320.347 142.04 320.414 141.941 320.5 141.858C320.585 141.775 320.687 141.711 320.798 141.669C320.909 141.627 321.028 141.608 321.147 141.614C321.266 141.619 321.383 141.649 321.49 141.701C321.659 141.783 321.796 141.916 321.882 142.082C321.968 142.247 321.998 142.437 321.967 142.62C321.758 143.885 320.492 145.556 319.757 146.439C319.656 146.56 319.521 146.646 319.369 146.687C319.217 146.727 319.057 146.72 318.909 146.666C318.814 146.631 318.728 146.577 318.654 146.508Z" fill="#6C63FF"/>
<path d="M317.419 144.513L315.798 142.173C315.778 142.143 315.77 142.105 315.776 142.069C315.783 142.033 315.804 142.002 315.834 141.981L315.899 141.936C315.914 141.926 315.931 141.918 315.949 141.915C315.966 141.911 315.985 141.911 316.003 141.914C316.021 141.917 316.038 141.924 316.053 141.934C316.068 141.944 316.082 141.956 316.092 141.971L317.713 144.312C317.723 144.327 317.73 144.344 317.734 144.361C317.738 144.379 317.738 144.397 317.735 144.415C317.731 144.433 317.725 144.45 317.715 144.465C317.705 144.481 317.692 144.494 317.677 144.504L317.612 144.549C317.582 144.569 317.544 144.577 317.508 144.571C317.472 144.564 317.44 144.543 317.419 144.513Z" fill="white"/>
<path d="M316.966 144.531L315.621 142.588C315.564 142.505 315.542 142.403 315.56 142.304C315.578 142.205 315.635 142.117 315.719 142.06L315.856 141.966L317.634 144.534L317.497 144.628C317.413 144.685 317.311 144.707 317.211 144.689C317.112 144.67 317.024 144.614 316.966 144.531Z" fill="#3F3D56"/>
<path d="M317.129 161.296L316.284 161.199L316.396 157.924L317.505 158.051L317.129 161.296Z" fill="#FFB8B8"/>
<path d="M317.25 162.136L314.525 161.823L314.529 161.789C314.545 161.65 314.589 161.516 314.657 161.394C314.725 161.272 314.817 161.164 314.926 161.078C315.036 160.991 315.162 160.927 315.297 160.888C315.432 160.85 315.573 160.839 315.712 160.855H315.712L317.376 161.046L317.25 162.136Z" fill="#2F2E41"/>
<path d="M326.953 160.674L326.14 160.924L324.786 157.922L325.985 157.553L326.953 160.674Z" fill="#FFB8B8"/>
<path d="M327.404 161.395L324.783 162.2L324.773 162.167C324.732 162.034 324.717 161.894 324.73 161.755C324.743 161.616 324.784 161.481 324.849 161.358C324.915 161.234 325.004 161.125 325.112 161.036C325.22 160.947 325.344 160.88 325.478 160.838H325.478L327.078 160.346L327.404 161.395Z" fill="#2F2E41"/>
<path d="M316.186 160.541C316.1 160.515 316.028 160.456 315.984 160.377C315.941 160.299 315.93 160.207 315.954 160.121L316.463 154.284C316.487 154.017 316.571 153.76 316.709 153.531L319.792 148.437L322.551 148.931L322.569 148.938C323.909 149.755 325.1 153.72 326.251 157.554C326.43 158.15 326.615 158.766 326.796 159.356C326.829 159.44 326.829 159.534 326.794 159.617C326.759 159.701 326.692 159.767 326.609 159.803L325.773 160.153C325.694 160.186 325.605 160.189 325.524 160.161C325.443 160.133 325.375 160.076 325.334 160L321.04 152.173C321.035 152.163 321.027 152.155 321.018 152.148C321.009 152.142 320.998 152.138 320.987 152.137C320.976 152.136 320.964 152.137 320.954 152.141C320.944 152.145 320.935 152.152 320.927 152.16L318.435 154.968L317.519 160.319L317.516 160.33C317.483 160.407 317.423 160.469 317.348 160.505C317.272 160.541 317.186 160.549 317.106 160.527L316.207 160.544L316.202 160.544L316.186 160.541Z" fill="#2F2E41"/>
<path d="M319.643 148.995L319.625 148.99L319.62 148.972C319.607 148.93 318.346 144.681 319.483 141.973L319.484 141.97C319.517 141.906 320.31 140.39 321.231 140.238L321.255 140.234L321.554 140.791C321.648 140.885 323.269 142.56 322.533 145.439C322.599 145.675 323.494 148.917 323.008 149.401C322.83 149.523 322.615 149.577 322.4 149.553C321.463 149.473 320.537 149.286 319.643 148.995Z" fill="#8BC83F"/>
<path d="M321.041 139.707C322.228 139.707 323.191 138.748 323.191 137.565C323.191 136.383 322.228 135.424 321.041 135.424C319.853 135.424 318.89 136.383 318.89 137.565C318.89 138.748 319.853 139.707 321.041 139.707Z" fill="#2F2E41"/>
<path d="M320.186 139.697C321.127 139.697 321.89 138.937 321.89 138C321.89 137.063 321.127 136.304 320.186 136.304C319.245 136.304 318.482 137.063 318.482 138C318.482 138.937 319.245 139.697 320.186 139.697Z" fill="#FFB8B8"/>
<path d="M321.283 139.648C321.127 139.703 320.937 139.752 320.815 139.638C320.764 139.572 320.734 139.493 320.729 139.41C320.724 139.327 320.744 139.245 320.787 139.174C320.876 139.034 320.947 138.884 321 138.728C321.016 138.61 321.001 138.49 320.957 138.38C320.913 138.27 320.84 138.173 320.747 138.099C320.563 137.959 320.353 137.854 320.13 137.79L318.937 137.368C318.627 137.295 318.352 137.118 318.159 136.866C318.059 136.656 318.042 136.416 318.111 136.195C318.18 135.973 318.329 135.784 318.53 135.667C318.733 135.565 318.956 135.51 319.183 135.506C319.409 135.501 319.634 135.548 319.841 135.641C320.068 135.747 320.302 135.84 320.539 135.92C321.017 136.045 321.56 135.932 321.98 136.201C322.157 136.334 322.297 136.51 322.389 136.712C322.48 136.914 322.519 137.135 322.502 137.356C322.466 137.8 322.347 138.233 322.151 138.633C322.06 138.88 321.929 139.11 321.762 139.314C321.681 139.413 321.576 139.492 321.458 139.542C321.339 139.593 321.21 139.615 321.081 139.606L321.283 139.648Z" fill="#2F2E41"/>
<path d="M322.844 137.911C323.611 137.911 324.232 137.293 324.232 136.53C324.232 135.767 323.611 135.148 322.844 135.148C322.078 135.148 321.457 135.767 321.457 136.53C321.457 137.293 322.078 137.911 322.844 137.911Z" fill="#2F2E41"/>
<path d="M320.555 138.533C320.555 138.508 320.562 138.483 320.575 138.462C320.588 138.44 320.606 138.423 320.629 138.411C320.651 138.399 320.676 138.393 320.701 138.395C320.726 138.396 320.751 138.404 320.771 138.418C320.792 138.432 320.809 138.451 320.82 138.474C320.83 138.497 320.835 138.522 320.832 138.547C320.829 138.572 320.82 138.596 320.805 138.616C320.79 138.636 320.769 138.651 320.746 138.661V138.965C320.746 138.971 320.745 138.978 320.742 138.985C320.74 138.991 320.736 138.997 320.731 139.001C320.726 139.006 320.72 139.01 320.714 139.013C320.708 139.015 320.701 139.017 320.694 139.017C320.687 139.017 320.68 139.015 320.674 139.013C320.668 139.01 320.662 139.006 320.657 139.001C320.652 138.997 320.648 138.991 320.646 138.985C320.643 138.978 320.642 138.971 320.642 138.965V138.661C320.616 138.65 320.594 138.633 320.579 138.61C320.563 138.587 320.555 138.56 320.555 138.533Z" fill="white"/>
<path d="M316.229 143.451C316.331 143.441 316.433 143.453 316.529 143.486C316.626 143.52 316.713 143.574 316.786 143.645C316.859 143.716 316.915 143.802 316.951 143.897C316.987 143.992 317.002 144.094 316.994 144.195L319.266 145.182L318.186 145.881L316.194 144.837C316.024 144.813 315.869 144.727 315.758 144.596C315.647 144.466 315.589 144.299 315.593 144.128C315.597 143.957 315.665 143.794 315.782 143.669C315.899 143.544 316.058 143.467 316.229 143.451Z" fill="#FFB8B8"/>
<path d="M320.159 146.804L317.376 145.641C317.337 145.625 317.303 145.601 317.274 145.572C317.244 145.542 317.222 145.507 317.206 145.468C317.191 145.429 317.184 145.388 317.185 145.347C317.186 145.305 317.195 145.264 317.212 145.227L317.475 144.646C317.506 144.577 317.561 144.522 317.631 144.49C317.7 144.459 317.778 144.454 317.851 144.476L320.071 145.152L320.177 142.147C320.181 142.029 320.21 141.912 320.261 141.805C320.312 141.698 320.385 141.603 320.474 141.525C320.564 141.447 320.669 141.388 320.782 141.352C320.896 141.316 321.016 141.303 321.134 141.315C321.321 141.332 321.496 141.41 321.635 141.535C321.773 141.661 321.867 141.828 321.903 142.011C322.149 143.268 321.548 145.274 321.168 146.357C321.116 146.505 321.02 146.633 320.891 146.724C320.763 146.814 320.61 146.863 320.453 146.864C320.352 146.864 320.252 146.843 320.159 146.804Z" fill="#8BC83F"/>
<path d="M34.7979 146.094H30.5356V144.805C31.8825 143.872 33.0758 143.953 34.6457 144.881L34.7979 146.094Z" fill="#6C63FF"/>
<path d="M29.5483 168.977H28.6151L28.4756 165.393H29.5483V168.977Z" fill="#FFB8B8"/>
<path d="M29.7866 169.877L26.7778 169.877V169.839C26.7778 169.686 26.8081 169.534 26.867 169.393C26.9258 169.251 27.0121 169.123 27.1208 169.014C27.2296 168.906 27.3587 168.82 27.5008 168.762C27.6428 168.703 27.7951 168.673 27.9489 168.673H27.949L29.7866 168.673L29.7866 169.877Z" fill="#2F2E41"/>
<path d="M34.8046 168.977H35.7374L35.8769 165.393H34.8042L34.8046 168.977Z" fill="#FFB8B8"/>
<path d="M34.5664 168.673L36.404 168.673H36.4041C36.5579 168.673 36.7102 168.703 36.8523 168.762C36.9943 168.82 37.1234 168.906 37.2322 169.014C37.3409 169.123 37.4272 169.251 37.486 169.393C37.5449 169.534 37.5752 169.686 37.5752 169.839V169.877L34.5665 169.877L34.5664 168.673Z" fill="#2F2E41"/>
<path d="M34.8285 168.517C34.7507 168.517 34.6752 168.49 34.6145 168.442C34.5537 168.393 34.5113 168.325 34.4941 168.25L32.1813 158.206C32.1763 158.18 32.1623 158.157 32.1419 158.141C32.1215 158.125 32.096 158.116 32.0699 158.117H32.0693C32.0431 158.116 32.0175 158.125 31.9972 158.142C31.9769 158.158 31.963 158.181 31.9582 158.207L29.8343 168.183C29.8178 168.26 29.7755 168.328 29.7146 168.377C29.6536 168.426 29.5777 168.453 29.4993 168.454H28.4875C28.4408 168.454 28.3947 168.444 28.3518 168.426C28.3089 168.407 28.2703 168.38 28.2383 168.346C28.2063 168.313 28.1815 168.273 28.1656 168.229C28.1497 168.185 28.1429 168.139 28.1456 168.092L28.8992 155.448L29.2024 155.358L29.2081 155.358L35.1645 155.41L36.433 168.041C36.4375 168.086 36.4328 168.132 36.4194 168.175C36.406 168.218 36.3841 168.258 36.3549 168.293C36.3258 168.328 36.29 168.356 36.2496 168.377C36.2092 168.398 36.165 168.41 36.1197 168.414L34.856 168.516C34.8468 168.516 34.8376 168.517 34.8285 168.517Z" fill="#2F2E41"/>
<path d="M32.3689 143.785C33.4013 143.785 34.2383 142.951 34.2383 141.923C34.2383 140.895 33.4013 140.062 32.3689 140.062C31.3365 140.062 30.4995 140.895 30.4995 141.923C30.4995 142.951 31.3365 143.785 32.3689 143.785Z" fill="#FFB8B8"/>
<path d="M31.2237 156.834C30.8957 156.838 30.5691 156.792 30.255 156.698C29.9756 156.614 29.7165 156.475 29.4934 156.287C29.2704 156.1 29.0883 155.869 28.9582 155.609C28.917 155.531 28.9078 155.44 28.9327 155.355C29.1388 154.654 30.1351 151.012 29.4995 148.117C29.4097 147.715 29.4023 147.299 29.4775 146.894C29.5528 146.489 29.7092 146.103 29.9375 145.759C30.1605 145.419 30.4501 145.126 30.7891 144.899C31.1282 144.672 31.5097 144.515 31.9108 144.438V144.438C32.0163 144.417 32.1223 144.401 32.2259 144.388C32.6694 144.333 33.1194 144.377 33.5439 144.516C33.9683 144.656 34.3566 144.886 34.6811 145.192C35.0151 145.504 35.2758 145.886 35.4444 146.31C35.6131 146.734 35.6855 147.189 35.6565 147.644L35.168 155.45C35.1646 155.509 35.146 155.565 35.114 155.615C35.082 155.664 35.0377 155.704 34.9855 155.731C34.4228 156.025 32.7326 156.834 31.2237 156.834Z" fill="#3F3D56"/>
<path d="M34.4806 140.553C34.2864 140.067 33.9307 139.662 33.4729 139.406C33.0151 139.15 32.4828 139.058 31.9649 139.145L32.5543 139.619C31.822 139.644 31.0512 139.591 30.5283 140.103C30.6948 140.098 30.9129 140.452 31.0794 140.448C30.9236 140.459 30.7736 140.511 30.6451 140.599C30.5165 140.688 30.4141 140.809 30.3485 140.95C30.2212 141.235 30.1914 141.555 30.2637 141.859C30.4523 142.306 30.6717 142.74 30.9203 143.158C30.8986 142.417 32.3625 140.651 33.0774 140.836C32.7142 140.97 32.399 141.208 32.1717 141.52C32.658 141.276 33.2081 141.186 33.7473 141.264C33.8704 141.292 33.9974 141.299 34.1229 141.285C34.1998 141.27 34.2715 141.235 34.3312 141.184C34.3909 141.134 34.4366 141.069 34.4638 140.996C34.4911 140.922 34.4991 140.843 34.487 140.766C34.4749 140.689 34.4431 140.616 34.3948 140.555L34.4806 140.553Z" fill="#2F2E41"/>
<path d="M31.0952 156.365C31.048 156.365 31.0013 156.355 30.9581 156.336L27.4112 154.795C27.3359 154.763 27.2748 154.705 27.239 154.631C27.2033 154.558 27.1955 154.474 27.2169 154.395L29.5649 145.564C29.6086 145.399 29.6847 145.245 29.7889 145.111C29.8931 144.976 30.0232 144.863 30.1716 144.779C30.32 144.695 30.4837 144.642 30.6533 144.621C30.8228 144.601 30.9946 144.615 31.1588 144.662L32.0976 144.928L31.4367 156.044C31.4333 156.099 31.4167 156.152 31.3883 156.199C31.3598 156.246 31.3204 156.286 31.2734 156.315C31.2198 156.348 31.1582 156.365 31.0952 156.365Z" fill="#1F4C6B"/>
<path d="M37.6596 154.395L37.5035 153.81L37.2775 152.958L37.1686 152.549L36.9426 151.7L35.3115 145.564C35.268 145.399 35.192 145.245 35.0878 145.11C34.9837 144.976 34.8536 144.863 34.7051 144.779C34.5567 144.695 34.3929 144.641 34.2233 144.621C34.0538 144.601 33.8819 144.615 33.7178 144.662L32.7793 144.929L33.2443 152.747L33.2923 153.563L33.3227 154.078V154.079L33.3714 154.89L33.44 156.044C33.4456 156.131 33.4839 156.212 33.5473 156.272C33.6107 156.332 33.6945 156.365 33.7817 156.366C33.8288 156.365 33.8755 156.356 33.9187 156.337L37.4655 154.795C37.5409 154.763 37.602 154.705 37.6377 154.632C37.6734 154.558 37.6811 154.474 37.6596 154.395Z" fill="#1F4C6B"/>
<path d="M37.1687 152.55L33.2922 153.563L33.2441 152.747L36.9425 151.7L37.1687 152.55Z" fill="#CCCCCC"/>
<path d="M37.5033 153.809L33.3711 154.89L33.3223 154.078V154.078L37.2772 152.958L37.5033 153.809Z" fill="#CCCCCC"/>
<path d="M31.5847 152.923L31.5367 153.724L27.7349 152.596L27.9577 151.758L31.5847 152.923Z" fill="#CCCCCC"/>
<path d="M31.5055 154.252L27.6261 153.005L27.4028 153.845L31.4583 155.048L31.5055 154.252Z" fill="#CCCCCC"/>
<path d="M27.6935 155.089C27.8092 155.059 27.9168 155.004 28.0088 154.928C28.1008 154.852 28.175 154.757 28.2261 154.649C28.2773 154.542 28.3041 154.424 28.3047 154.305C28.3052 154.186 28.2796 154.069 28.2296 153.961L30.0534 148.26L28.7601 147.99L27.0881 153.579C26.9113 153.675 26.7759 153.832 26.7075 154.021C26.6392 154.209 26.6427 154.416 26.7173 154.602C26.7919 154.788 26.9325 154.94 27.1125 155.03C27.2924 155.12 27.4991 155.141 27.6935 155.089V155.089Z" fill="#FFB8B8"/>
<path d="M30.104 145.457C30.4754 145.495 30.6842 145.91 30.5919 146.428L30.1488 148.912C30.1156 149.098 29.9617 149.246 29.8338 149.214L28.3351 148.841C28.2198 148.812 28.1773 148.649 28.2427 148.486L29.1424 146.239C29.2032 146.026 29.328 145.837 29.5 145.698C29.6719 145.558 29.8827 145.474 30.104 145.457Z" fill="#234F68"/>
<path d="M32.3623 138.439C32.995 138.44 33.6028 138.685 34.0571 139.123C34.5113 139.562 34.7763 140.159 34.796 140.789H35.2546C35.2949 140.789 35.3337 140.805 35.3622 140.833C35.3908 140.862 35.4068 140.9 35.4068 140.94V141.547C35.4068 141.587 35.3908 141.625 35.3622 141.654C35.3337 141.682 35.2949 141.698 35.2546 141.698H30.079C30.0386 141.698 29.9999 141.682 29.9713 141.654C29.9428 141.625 29.9268 141.587 29.9268 141.547V140.864C29.9268 140.546 29.9898 140.231 30.1122 139.936C30.2345 139.642 30.414 139.375 30.6401 139.15C30.8663 138.925 31.1348 138.746 31.4303 138.624C31.7258 138.502 32.0425 138.439 32.3623 138.439Z" fill="#1F4C6B"/>
<path d="M32.6531 153.43H31.5772C31.5427 153.43 31.5094 153.417 31.4838 153.394C31.4582 153.371 31.4422 153.339 31.439 153.305L31.2236 151.107H33.0067L32.7913 153.305C32.7881 153.339 32.7721 153.371 32.7465 153.394C32.7209 153.417 32.6876 153.43 32.6531 153.43Z" fill="#E6E6E6"/>
<path d="M33.004 151.383H31.2267C31.1899 151.383 31.1546 151.369 31.1286 151.343C31.1026 151.317 31.0879 151.282 31.0879 151.245V150.913C31.0879 150.877 31.1026 150.841 31.1286 150.815C31.1546 150.79 31.1899 150.775 31.2267 150.775H33.004C33.0409 150.775 33.0761 150.79 33.1022 150.815C33.1282 150.841 33.1429 150.877 33.1429 150.913V151.245C33.1429 151.282 33.1282 151.317 33.1022 151.343C33.0761 151.369 33.0409 151.383 33.004 151.383Z" fill="#CCCCCC"/>
<path d="M32.1382 152.251C32.18 152.256 32.2214 152.264 32.262 152.275L35.1273 149.828L34.9598 148.931L36.2874 148.502L36.739 150.062C36.7755 150.188 36.7699 150.323 36.7232 150.446C36.6764 150.568 36.5909 150.672 36.4795 150.743L32.8507 153.029C32.8533 153.19 32.8064 153.349 32.7163 153.483C32.6262 153.618 32.4972 153.721 32.3464 153.781C32.1956 153.841 32.0301 153.853 31.872 153.817C31.714 153.78 31.5707 153.697 31.4614 153.577C31.3521 153.458 31.2819 153.308 31.2602 153.148C31.2384 152.988 31.2661 152.825 31.3395 152.681C31.413 152.537 31.5288 152.419 31.6715 152.342C31.8141 152.265 31.9769 152.233 32.1382 152.251H32.1382Z" fill="#FFB8B8"/>
<path d="M35.1348 145.662C35.5315 145.552 35.9279 145.853 36.0607 146.365L36.698 148.822C36.7458 149.007 36.653 149.202 36.5081 149.223L34.8103 149.466C34.6796 149.485 34.5645 149.352 34.5597 149.176L34.4938 146.757C34.4686 146.531 34.5173 146.302 34.6327 146.105C34.7481 145.907 34.9242 145.752 35.1348 145.662Z" fill="#1F4C6B"/>
<path d="M54.4332 152.312H53.1406C53.0991 152.312 53.0591 152.296 53.0284 152.269C52.9976 152.241 52.9785 152.203 52.9746 152.162L52.7158 149.521H54.858L54.5993 152.161C54.5954 152.203 54.5762 152.241 54.5455 152.269C54.5147 152.296 54.4747 152.312 54.4332 152.312Z" fill="#E6E6E6"/>
<path d="M54.8549 149.853H52.7196C52.6753 149.853 52.6329 149.835 52.6017 149.804C52.5704 149.773 52.5528 149.731 52.5527 149.687V149.288C52.5528 149.244 52.5704 149.202 52.6017 149.171C52.6329 149.14 52.6753 149.122 52.7196 149.122H54.8549C54.8991 149.122 54.9415 149.14 54.9728 149.171C55.0041 149.202 55.0216 149.244 55.0217 149.288V149.687C55.0216 149.731 55.0041 149.773 54.9728 149.804C54.9415 149.835 54.8991 149.853 54.8549 149.853Z" fill="#CCCCCC"/>
<path d="M67.1328 167.818C66.1937 166.574 65.4512 165.195 64.9313 163.727C64.9012 163.639 64.9033 163.544 64.9373 163.457C64.9714 163.371 65.035 163.3 65.1171 163.256L68.3309 161.541C68.3829 161.513 68.4406 161.497 68.4996 161.495C68.5587 161.493 68.6175 161.504 68.6716 161.527C68.7267 161.551 68.7756 161.587 68.8146 161.633C68.8536 161.678 68.8816 161.732 68.8966 161.79C69.2707 163.204 69.9738 164.511 70.9491 165.604C70.9893 165.648 71.0187 165.701 71.0352 165.759C71.0516 165.817 71.0547 165.877 71.0441 165.936C71.0339 165.994 71.0106 166.049 70.9759 166.096C70.9412 166.144 70.896 166.183 70.8439 166.211L67.6301 167.925C67.5479 167.969 67.4528 167.982 67.3617 167.962C67.2707 167.943 67.1895 167.892 67.1328 167.818Z" fill="#CCCCCC"/>
<path d="M67.3523 167.654C67.3696 167.675 67.3939 167.69 67.421 167.696C67.4481 167.701 67.4762 167.697 67.5007 167.684L70.7145 165.97C70.7301 165.962 70.7436 165.95 70.7539 165.936C70.7643 165.922 70.7712 165.905 70.7742 165.888C70.7775 165.87 70.7766 165.851 70.7714 165.833C70.7663 165.815 70.757 165.799 70.7444 165.785C69.7404 164.66 69.0165 163.315 68.6315 161.859C68.627 161.841 68.6184 161.824 68.6064 161.81C68.5944 161.796 68.5792 161.785 68.5621 161.777C68.5461 161.77 68.5285 161.767 68.5109 161.768C68.4933 161.768 68.4761 161.773 68.4606 161.782L65.2469 163.496C65.2225 163.509 65.2035 163.53 65.1932 163.556C65.1828 163.582 65.1818 163.61 65.1902 163.636C65.7008 165.077 66.43 166.432 67.3523 167.654Z" fill="white"/>
<path d="M68.542 163.988L66.7916 164.757C66.725 164.786 66.6495 164.788 66.5817 164.762C66.5139 164.736 66.4593 164.684 66.4298 164.617L66.3865 164.52C66.3572 164.454 66.3556 164.378 66.3818 164.311C66.4081 164.243 66.4602 164.189 66.5267 164.16L68.2771 163.39C68.3437 163.361 68.4191 163.359 68.487 163.386C68.5548 163.412 68.6094 163.464 68.6389 163.53L68.6821 163.628C68.7114 163.694 68.7131 163.769 68.6869 163.837C68.6606 163.904 68.6085 163.958 68.542 163.988Z" fill="#CCCCCC"/>
<path d="M69.1821 165.171L67.4317 165.941C67.3652 165.97 67.2897 165.972 67.2219 165.945C67.154 165.919 67.0994 165.867 67.07 165.801L67.0267 165.703C66.9974 165.637 66.9957 165.562 67.022 165.494C67.0483 165.427 67.1004 165.373 67.1669 165.343L68.9172 164.574C68.9838 164.545 69.0593 164.543 69.1271 164.569C69.1949 164.595 69.2495 164.647 69.279 164.714L69.3223 164.811C69.3516 164.877 69.3533 164.953 69.327 165.02C69.3007 165.088 69.2486 165.142 69.1821 165.171Z" fill="#CCCCCC"/>
<path d="M65.0767 164.185C64.9559 164.108 64.8536 164.005 64.777 163.884C64.7005 163.763 64.6515 163.627 64.6335 163.485C64.6155 163.343 64.629 163.199 64.673 163.063C64.717 162.927 64.7904 162.802 64.8881 162.697L64.1499 152.267L66.2762 152.472L66.3346 162.687C66.5006 162.862 66.5963 163.091 66.6036 163.332C66.6108 163.573 66.5292 163.808 66.3742 163.992C66.2191 164.177 66.0014 164.299 65.7622 164.334C65.5231 164.37 65.2792 164.317 65.0767 164.185Z" fill="#A0616A"/>
<path d="M64.6312 155.772C64.5814 155.736 64.5403 155.69 64.5109 155.636C64.4814 155.583 64.4645 155.523 64.4612 155.462L64.3054 152.651C64.29 152.372 64.3787 152.098 64.5544 151.881C64.7301 151.664 64.9804 151.519 65.2569 151.474C65.5335 151.43 65.8168 151.489 66.0522 151.64C66.2876 151.792 66.4584 152.024 66.5317 152.293L67.2162 154.807C67.2446 154.912 67.2301 155.023 67.1758 155.118C67.1215 155.212 67.032 155.281 66.9267 155.309L64.9798 155.835C64.9207 155.851 64.8586 155.854 64.7983 155.843C64.738 155.832 64.6809 155.808 64.6312 155.772Z" fill="#3F3D56"/>
<path d="M61.0073 177.008L59.8865 177.008L59.353 172.703H61.0077L61.0073 177.008Z" fill="#A0616A"/>
<path d="M58.8351 176.689H61.2475V178.044H57.7241V177.795C57.7241 177.65 57.7529 177.506 57.8087 177.372C57.8645 177.238 57.9463 177.116 58.0495 177.013C58.1527 176.91 58.2751 176.829 58.4099 176.773C58.5447 176.718 58.6892 176.689 58.8351 176.689Z" fill="#2F2E41"/>
<path d="M65.2134 177.008L64.0926 177.008L63.5591 172.703H65.2138L65.2134 177.008Z" fill="#A0616A"/>
<path d="M63.0416 176.689H65.454V178.044H61.9307V177.795C61.9307 177.65 61.9594 177.506 62.0152 177.372C62.071 177.238 62.1529 177.116 62.256 177.013C62.3592 176.91 62.4817 176.829 62.6165 176.773C62.7513 176.718 62.8957 176.689 63.0416 176.689Z" fill="#2F2E41"/>
<path d="M60.9544 174.839L59.7203 174.78C59.6152 174.775 59.5159 174.731 59.443 174.655C59.3701 174.579 59.3291 174.479 59.3284 174.374C59.003 169.374 58.5524 164.012 59.2422 161.941C59.2418 161.882 59.2542 161.824 59.2786 161.77C59.303 161.716 59.3387 161.668 59.3834 161.629C59.4281 161.59 59.4807 161.562 59.5375 161.545C59.5944 161.528 59.6542 161.524 59.7128 161.533L64.6502 162.246C64.7477 162.26 64.8371 162.308 64.9018 162.382C64.9666 162.456 65.0023 162.551 65.0026 162.649C65.6329 165.101 65.6614 169.548 65.6376 174.169C65.638 174.223 65.6276 174.277 65.6072 174.327C65.5867 174.377 65.5564 174.423 65.5182 174.461C65.4799 174.499 65.4344 174.53 65.3843 174.551C65.3341 174.571 65.2804 174.582 65.2261 174.582H63.8956C63.7974 174.582 63.7024 174.548 63.6278 174.484C63.5532 174.421 63.5039 174.333 63.4891 174.236L62.6682 169.04C62.6562 168.964 62.617 168.895 62.5578 168.846C62.4986 168.796 62.4234 168.77 62.3461 168.771C62.2688 168.772 62.1947 168.802 62.1374 168.853C62.08 168.905 62.0434 168.975 62.0342 169.052L61.3826 174.478C61.3703 174.578 61.322 174.669 61.2468 174.736C61.1716 174.802 61.0746 174.839 60.974 174.84C60.9675 174.84 60.961 174.839 60.9544 174.839Z" fill="#2F2E41"/>
<path d="M61.8229 162.649C61.1023 162.228 60.3036 161.956 59.4747 161.849C59.4202 161.843 59.3674 161.827 59.3194 161.801C59.2714 161.775 59.2292 161.739 59.1955 161.696C59.1609 161.653 59.1356 161.603 59.121 161.55C59.1063 161.497 59.1027 161.441 59.1103 161.387L60.2934 152.641C60.3615 152.13 60.5599 151.644 60.8699 151.23C61.1798 150.817 61.5909 150.489 62.064 150.278C62.522 150.068 63.0263 149.979 63.5288 150.018C64.0313 150.057 64.5154 150.224 64.9349 150.502C64.9755 150.529 65.0153 150.556 65.0543 150.584C65.5375 150.937 65.9051 151.424 66.1107 151.984C66.3163 152.544 66.3508 153.153 66.2098 153.732C65.4843 156.687 65.2351 161.532 65.1926 162.473C65.1892 162.553 65.1621 162.63 65.1146 162.695C65.0671 162.76 65.0014 162.81 64.9257 162.837C64.4794 162.999 64.0083 163.082 63.5334 163.084C62.9352 163.088 62.3462 162.938 61.8229 162.649Z" fill="#3F3D56"/>
<path d="M62.8128 149.091C64.0532 149.091 65.0588 148.089 65.0588 146.854C65.0588 145.619 64.0532 144.618 62.8128 144.618C61.5724 144.618 60.5669 145.619 60.5669 146.854C60.5669 148.089 61.5724 149.091 62.8128 149.091Z" fill="#A0616A"/>
<path d="M64.4019 148.623C64.308 148.724 64.1872 148.796 64.0536 148.831C63.9199 148.866 63.7791 148.862 63.6477 148.82C63.5162 148.778 63.3996 148.699 63.3115 148.593C63.2233 148.487 63.1674 148.359 63.1502 148.222C63.1459 148.175 63.1462 148.128 63.1511 148.08C63.233 147.822 63.2823 147.554 63.298 147.283C63.2895 147.213 63.2631 147.145 63.2212 147.088C62.8873 146.643 62.1035 147.287 61.7884 146.884C61.5952 146.637 61.8223 146.248 61.674 145.972C61.4784 145.607 60.8987 145.787 60.5352 145.587C60.1308 145.365 60.155 144.747 60.4212 144.371C60.5945 144.149 60.8148 143.968 61.0665 143.841C61.3182 143.713 61.595 143.642 61.8773 143.633C62.4425 143.62 63.0038 143.729 63.5226 143.953C64.1352 144.151 64.6757 144.525 65.0772 145.026C65.2849 145.355 65.4165 145.726 65.4625 146.112C65.5085 146.498 65.4677 146.889 65.3432 147.257C65.1235 147.77 64.8036 148.235 64.4019 148.623Z" fill="#2F2E41"/>
<path d="M66.1806 150.798C66.1413 150.614 65.8039 150.362 65.3211 150.158C64.545 149.845 63.7056 149.719 62.8714 149.79C62.0371 149.861 61.2315 150.127 60.5203 150.567C60.4707 150.57 60.4233 150.589 60.3855 150.621C60.3476 150.653 60.3214 150.697 60.3109 150.745L58.6868 157.897L58.4756 158.828L58.3357 159.444L58.1245 160.373L58.012 160.869C58.0048 160.901 58.0045 160.934 58.0111 160.966C58.0177 160.998 58.031 161.028 58.0503 161.054C58.0695 161.08 58.0941 161.102 58.1225 161.118C58.1509 161.134 58.1825 161.144 58.215 161.147L65.2278 161.75C65.2342 161.75 65.2415 161.751 65.2479 161.751C65.3057 161.75 65.3613 161.728 65.4034 161.689C65.4455 161.649 65.471 161.595 65.4747 161.538L65.5414 160.526L65.6128 159.444L65.6438 158.976L65.7143 157.897L66.1815 150.81V150.803L66.1806 150.798Z" fill="#1F4C6B"/>
<path d="M54.6739 151.248C54.6852 151.297 54.6925 151.347 54.6958 151.397L58.624 153.653L59.5788 153.106L60.5967 154.433L58.5541 155.882L54.0726 152.362C53.8899 152.429 53.6908 152.44 53.502 152.392C53.3132 152.344 53.1435 152.24 53.0156 152.093C52.8876 151.947 52.8075 151.765 52.7858 151.572C52.7641 151.379 52.8018 151.185 52.8941 151.014C52.9863 150.843 53.1286 150.704 53.3021 150.615C53.4755 150.527 53.6719 150.493 53.8651 150.518C54.0584 150.544 54.2392 150.627 54.3837 150.757C54.5282 150.888 54.6294 151.059 54.6739 151.248V151.248Z" fill="#A0616A"/>
<path d="M58.7641 153.462C58.7575 153.401 58.7647 153.339 58.7852 153.282C58.8057 153.224 58.8389 153.172 58.8823 153.129L60.8816 151.138C61.0797 150.941 61.3441 150.823 61.6238 150.809C61.9036 150.794 62.1789 150.883 62.3966 151.059C62.6144 151.234 62.7592 151.484 62.8031 151.759C62.847 152.035 62.7869 152.317 62.6344 152.551L61.2106 154.735C61.1511 154.826 61.0578 154.89 60.951 154.912C60.8443 154.935 60.733 154.915 60.6414 154.856L58.9493 153.762C58.8978 153.729 58.8544 153.685 58.8224 153.633C58.7903 153.581 58.7704 153.522 58.7641 153.462Z" fill="#1F4C6B"/>
<path d="M65.7144 157.896L65.6442 158.976L58.4756 158.828L58.6869 157.896H65.7144Z" fill="#CCCCCC"/>
<path d="M65.6128 159.444L65.5414 160.526L58.1245 160.373L58.3359 159.444H65.6128Z" fill="#CCCCCC"/>
<path d="M62.8565 142.51C62.0963 142.51 61.3661 142.805 60.8203 143.331C60.2746 143.858 59.9562 144.576 59.9326 145.332H59.3816C59.3331 145.332 59.2866 145.351 59.2523 145.386C59.218 145.42 59.1987 145.466 59.1987 145.514V146.243C59.1987 146.291 59.218 146.337 59.2523 146.371C59.2866 146.406 59.3331 146.425 59.3816 146.425H65.5998C65.6483 146.425 65.6948 146.406 65.7291 146.371C65.7634 146.337 65.7827 146.291 65.7827 146.243V145.423C65.7827 145.041 65.707 144.662 65.5599 144.308C65.4129 143.955 65.1973 143.634 64.9256 143.363C64.6539 143.093 64.3313 142.878 63.9763 142.732C63.6213 142.585 63.2407 142.51 62.8565 142.51Z" fill="#1F4C6B"/>
<path d="M79.3258 172.15H78.6986C78.6946 172.075 77.8525 170.107 77.8525 170.107L77.3436 168.882L77.0071 168.064L76.4981 166.838L75.9154 165.429C75.9005 165.365 75.8644 165.308 75.813 165.268C75.7616 165.227 75.6979 165.205 75.6323 165.205C75.5667 165.205 75.503 165.227 75.4516 165.268C75.4001 165.308 75.3641 165.365 75.3491 165.429L74.7664 166.838L74.2575 168.064L73.921 168.882L73.412 170.107C73.412 170.107 72.57 172.075 72.566 172.15H71.9388C71.7756 172.15 71.619 172.215 71.5035 172.33C71.3881 172.445 71.3232 172.601 71.3232 172.763C71.3232 172.926 71.3881 173.082 71.5035 173.197C71.619 173.312 71.7756 173.376 71.9388 173.376H79.3258C79.489 173.376 79.6456 173.312 79.761 173.197C79.8765 173.082 79.9413 172.926 79.9413 172.763C79.9413 172.601 79.8765 172.445 79.761 172.33C79.6456 172.215 79.489 172.15 79.3258 172.15Z" fill="#FF6584"/>
<path d="M78.9151 182.774H78.672C78.6943 182.722 77.6142 179.971 77.6142 179.971L76.9658 178.398L76.5307 177.344L75.8823 175.77L75.1765 174.067C75.1567 173.986 75.1103 173.915 75.0448 173.864C74.9793 173.812 74.8985 173.785 74.8153 173.785C74.7321 173.785 74.6513 173.812 74.5859 173.864C74.5204 173.915 74.474 173.986 74.4541 174.067L73.7484 175.77L73.1 177.344L72.6607 178.398L72.0125 179.971C72.0125 179.971 70.9364 182.722 70.9587 182.774H70.7074C70.5441 182.774 70.3875 182.839 70.2721 182.954C70.1566 183.069 70.0918 183.224 70.0918 183.387C70.0918 183.55 70.1566 183.705 70.2721 183.82C70.3875 183.935 70.5441 184 70.7074 184H78.9151C79.0783 184 79.2349 183.935 79.3504 183.82C79.4658 183.705 79.5307 183.55 79.5307 183.387C79.5307 183.224 79.4658 183.069 79.3504 182.954C79.2349 182.839 79.0783 182.774 78.9151 182.774Z" fill="#FF6584"/>
<path d="M77.0069 168.064H74.2573L74.7662 166.838H76.498L77.0069 168.064Z" fill="#F2F2F2"/>
<path d="M77.852 170.107H73.4116L73.9205 168.881H77.3431L77.852 170.107Z" fill="#F2F2F2"/>
<path d="M76.5309 177.344H73.1001L73.7485 175.771H75.8825L76.5309 177.344Z" fill="#F2F2F2"/>
<path d="M77.614 179.971H72.0122L72.6606 178.398H76.9656L77.614 179.971Z" fill="#F2F2F2"/>
<path d="M169.481 148.756C169.544 148.693 169.593 148.618 169.624 148.535C169.655 148.451 169.667 148.362 169.66 148.274C169.652 148.186 169.626 148.1 169.581 148.023C169.537 147.946 169.476 147.879 169.404 147.828L169.096 145.807L167.831 146.203L168.524 148.006C168.446 148.134 168.417 148.286 168.444 148.433C168.47 148.58 168.55 148.712 168.668 148.804C168.786 148.897 168.934 148.943 169.084 148.934C169.234 148.925 169.375 148.861 169.481 148.756Z" fill="#FFB8B8"/>
<path d="M168.178 147.805L167.398 144.177C167.322 143.83 167.337 143.469 167.441 143.129C167.545 142.789 167.736 142.481 167.994 142.235C168.992 141.277 170.276 140.069 170.719 139.757C171.135 139.461 171.639 139.313 172.149 139.336L172.16 139.337L172.831 139.969L171.369 142.365L169.15 143.75L169.397 147.305L168.178 147.805Z" fill="#8BC83F"/>
<path d="M170.911 142.875H167.637C167.495 142.875 167.38 142.99 167.38 143.131C167.38 143.272 167.495 143.387 167.637 143.387H170.911C171.052 143.387 171.167 143.272 171.167 143.131C171.167 142.99 171.052 142.875 170.911 142.875Z" fill="#CCCCCC"/>
<path d="M170.911 148.436H167.637C167.495 148.436 167.38 148.551 167.38 148.692C167.38 148.833 167.495 148.947 167.637 148.947H170.911C171.052 148.947 171.167 148.833 171.167 148.692C171.167 148.551 171.052 148.436 170.911 148.436Z" fill="#CCCCCC"/>
<path d="M169.306 162.37C169.274 162.37 169.243 162.358 169.219 162.336C169.195 162.315 169.181 162.285 169.178 162.253L167.541 143.143C167.54 143.126 167.541 143.109 167.546 143.093C167.551 143.077 167.56 143.062 167.57 143.049C167.581 143.036 167.594 143.025 167.609 143.018C167.624 143.01 167.641 143.005 167.658 143.004C167.674 143.002 167.691 143.004 167.707 143.009C167.724 143.014 167.739 143.022 167.751 143.033C167.764 143.044 167.775 143.057 167.783 143.072C167.791 143.087 167.795 143.103 167.797 143.12L169.304 160.777L170.768 143.12C170.769 143.104 170.774 143.087 170.782 143.072C170.789 143.057 170.8 143.044 170.813 143.033C170.826 143.022 170.841 143.014 170.857 143.009C170.873 143.004 170.89 143.002 170.907 143.003C170.924 143.005 170.94 143.01 170.955 143.017C170.97 143.025 170.983 143.036 170.994 143.049C171.005 143.062 171.013 143.076 171.018 143.093C171.023 143.109 171.025 143.126 171.024 143.142L169.434 162.253C169.431 162.285 169.416 162.315 169.392 162.336C169.369 162.358 169.338 162.37 169.306 162.37L169.306 162.37Z" fill="#CCCCCC"/>
<path d="M172.98 138.571C173.91 138.571 174.664 137.821 174.664 136.894C174.664 135.968 173.91 135.217 172.98 135.217C172.05 135.217 171.295 135.968 171.295 136.894C171.295 137.821 172.05 138.571 172.98 138.571Z" fill="#FFB8B8"/>
<path d="M167.96 161.603L167.159 161.349L167.762 158.152L168.945 158.527L167.96 161.603Z" fill="#FFB8B8"/>
<path d="M167.915 162.311L165.336 161.492L165.358 161.425C165.44 161.17 165.62 160.958 165.859 160.835C166.098 160.712 166.376 160.689 166.633 160.77L168.245 161.281L167.915 162.311Z" fill="#2F2E41"/>
<path d="M173.788 161.587H172.947L172.547 158.358H173.788V161.587Z" fill="#FFB8B8"/>
<path d="M171.358 162.332H173.936V161.379H172.309C172.057 161.38 171.815 161.479 171.637 161.657C171.458 161.834 171.358 162.075 171.358 162.326V162.332Z" fill="#2F2E41"/>
<path d="M173.763 160.539L173.48 160.497C173.123 160.476 172.771 160.41 172.431 160.302C172.361 160.271 172.356 159.81 172.398 157.218C172.429 155.314 172.467 152.946 172.393 151.675C172.39 151.624 172.37 151.577 172.336 151.539C172.303 151.502 172.257 151.477 172.208 151.468C172.158 151.459 172.107 151.467 172.062 151.491C172.018 151.515 171.983 151.553 171.963 151.599C171.322 153.072 170.248 156.367 169.537 158.547C169.29 159.306 169.094 159.905 168.971 160.264C168.947 160.332 168.898 160.388 168.835 160.422C168.771 160.457 168.697 160.466 168.627 160.449C168.042 160.303 168.081 160.241 167.248 160.027C167.176 160.008 167.113 159.963 167.074 159.9C167.035 159.837 167.022 159.762 167.037 159.689C167.188 158.981 169.946 147.507 170.157 146.416C170.164 146.379 170.179 146.343 170.2 146.311C170.221 146.28 170.248 146.252 170.28 146.231C170.311 146.21 170.347 146.195 170.384 146.188C170.422 146.18 170.46 146.18 170.498 146.188C171.119 146.312 171.496 146.444 172.11 146.572C172.772 146.71 173.457 146.853 174.125 146.986C174.191 146.999 174.251 147.036 174.293 147.089C174.479 147.287 174.708 147.44 174.963 147.537C175.138 147.62 174.741 147.612 174.894 147.732C175.511 148.219 174.624 158.092 174.087 160.322C174.07 160.392 174.028 160.453 173.968 160.493C173.908 160.533 173.835 160.55 173.763 160.539V160.539Z" fill="#2F2E41"/>
<path d="M173.698 138.362C173.599 137.946 174.096 137.052 173.998 136.637C173.931 136.356 173.267 136.547 173.112 136.302C173.04 136.176 172.938 136.07 172.815 135.992C172.692 135.915 172.552 135.868 172.407 135.857C172.073 135.853 171.745 136.1 171.429 135.993C171.354 135.956 171.287 135.905 171.233 135.842C171.178 135.779 171.136 135.706 171.11 135.627C171.084 135.548 171.074 135.465 171.081 135.382C171.087 135.299 171.11 135.218 171.148 135.144C171.317 134.851 171.58 134.621 171.895 134.493C172.39 134.191 172.984 134.092 173.551 134.215C173.876 134.341 174.173 134.527 174.428 134.764C174.682 134.952 174.906 135.178 175.091 135.435C175.248 135.702 175.333 136.005 175.338 136.315C175.343 136.625 175.268 136.931 175.12 137.203C174.813 137.747 174.324 138.166 173.738 138.387" fill="#2F2E41"/>
<path d="M169.561 148.03C169.743 147.728 170.019 146.311 170.36 143.933C170.591 142.31 170.793 140.66 170.893 139.818C170.901 139.749 170.926 139.684 170.966 139.628C171.006 139.572 171.06 139.528 171.122 139.498C171.187 139.467 171.252 139.437 171.316 139.409C172.087 139.058 172.943 138.933 173.783 139.051C174.623 139.168 175.412 139.523 176.056 140.072L176.064 140.079L176.066 140.089C176.069 140.108 176.417 141.975 175.704 143.236C175.002 144.48 174.993 147.776 174.993 147.809V147.851L174.953 147.84C173.859 147.529 169.636 148.073 169.593 148.078L169.527 148.087L169.561 148.03Z" fill="#8BC83F"/>
<path d="M175.917 143.706H172.643C172.502 143.706 172.387 143.821 172.387 143.962C172.387 144.103 172.502 144.217 172.643 144.217H175.917C176.059 144.217 176.174 144.103 176.174 143.962C176.174 143.821 176.059 143.706 175.917 143.706Z" fill="#CCCCCC"/>
<path d="M175.917 149.267H172.643C172.502 149.267 172.387 149.382 172.387 149.523C172.387 149.664 172.502 149.778 172.643 149.778H175.917C176.059 149.778 176.174 149.664 176.174 149.523C176.174 149.382 176.059 149.267 175.917 149.267Z" fill="#CCCCCC"/>
<path d="M174.312 162.434C174.28 162.434 174.249 162.422 174.226 162.4C174.202 162.378 174.187 162.349 174.185 162.317L172.548 143.973C172.545 143.939 172.555 143.906 172.577 143.88C172.599 143.854 172.63 143.838 172.664 143.835C172.698 143.832 172.732 143.842 172.758 143.864C172.784 143.886 172.801 143.917 172.804 143.951L174.311 160.84L175.775 143.951C175.776 143.934 175.781 143.918 175.789 143.903C175.796 143.888 175.807 143.875 175.82 143.864C175.833 143.853 175.848 143.845 175.864 143.839C175.88 143.834 175.897 143.833 175.914 143.834C175.931 143.835 175.947 143.84 175.962 143.848C175.977 143.856 175.99 143.866 176.001 143.879C176.012 143.892 176.02 143.907 176.025 143.923C176.03 143.939 176.032 143.956 176.031 143.973L174.44 162.317C174.438 162.349 174.423 162.378 174.399 162.4C174.376 162.422 174.345 162.434 174.313 162.434L174.312 162.434Z" fill="#CCCCCC"/>
<path d="M173.255 149.348C173.236 149.261 173.236 149.172 173.256 149.085C173.275 148.998 173.314 148.917 173.368 148.847C173.423 148.777 173.492 148.719 173.571 148.678C173.65 148.638 173.737 148.615 173.827 148.611L175.188 147.081L176.033 148.098L174.468 149.237C174.464 149.386 174.405 149.529 174.302 149.638C174.2 149.747 174.061 149.815 173.911 149.829C173.762 149.842 173.612 149.801 173.492 149.712C173.371 149.624 173.287 149.494 173.255 149.348H173.255Z" fill="#FFB8B8"/>
<path d="M174.048 148.283L176.196 145.432L175.089 143.069L175.169 140.266L176.077 140.099L176.087 140.104C176.528 140.361 176.87 140.757 177.058 141.23C177.259 141.733 177.678 143.441 177.993 144.785C178.076 145.131 178.067 145.493 177.969 145.835C177.871 146.177 177.687 146.488 177.433 146.738L174.799 149.362L174.048 148.283Z" fill="#8BC83F"/>
<path d="M165.045 161.641L167.983 162.345C168.04 162.36 168.101 162.355 168.154 162.33C168.208 162.305 168.251 162.262 168.276 162.209L170.8 155.527C170.811 155.502 170.817 155.474 170.817 155.446C170.817 155.418 170.811 155.39 170.8 155.365C170.787 155.336 170.769 155.31 170.746 155.288C170.723 155.267 170.695 155.25 170.665 155.239L168.456 154.399C168.421 154.386 168.384 154.38 168.347 154.382C168.309 154.384 168.273 154.394 168.24 154.411C168.211 154.425 168.185 154.446 168.165 154.47C168.145 154.495 168.13 154.524 168.122 154.555L168.121 154.555L166.562 160.445L166.539 160.446C166.055 160.474 165.595 160.665 165.234 160.988C165.159 161.078 165.104 161.182 165.071 161.295C165.038 161.407 165.03 161.525 165.045 161.641Z" fill="#CCCCCC"/>
<path d="M167.173 157.895L167.16 158.022L169.839 158.305L169.852 158.178L167.173 157.895Z" fill="#B3B3B3"/>
<path d="M166.939 158.948L166.887 159.065L169.043 160.031L169.095 159.914L166.939 158.948Z" fill="#B3B3B3"/>
<path d="M170.134 157.282L167.593 156.444L167.646 156.328L170.186 157.165L170.134 157.282Z" fill="#B3B3B3"/>
<path d="M170.391 156.707L167.85 155.486L167.902 155.369L170.443 156.59L170.391 156.707Z" fill="#B3B3B3"/>
<path d="M166.715 159.949L166.632 160.046L168.464 161.605L168.547 161.507L166.715 159.949Z" fill="#B3B3B3"/>
<path d="M166.195 160.466L166.078 160.519L166.814 162.134L166.931 162.081L166.195 160.466Z" fill="#B3B3B3"/>
<path d="M237.806 149.291C237.698 149.266 237.596 149.217 237.508 149.148C237.42 149.08 237.348 148.993 237.297 148.893C237.247 148.794 237.219 148.685 237.215 148.574C237.212 148.463 237.233 148.352 237.277 148.25L234.458 141.909L236.07 141.505L238.334 147.864C238.502 147.949 238.632 148.093 238.701 148.267C238.77 148.442 238.772 148.635 238.707 148.811C238.642 148.987 238.514 149.133 238.348 149.221C238.182 149.31 237.989 149.334 237.806 149.291Z" fill="#A0616A"/>
<path d="M234.982 143.896C234.937 143.876 234.896 143.846 234.864 143.81C234.831 143.773 234.807 143.729 234.793 143.682L234.3 142.041C234.193 141.813 234.18 141.553 234.265 141.316C234.351 141.08 234.527 140.886 234.755 140.779C234.984 140.672 235.246 140.659 235.483 140.744C235.721 140.829 235.915 141.005 236.023 141.232L236.976 142.665C237.003 142.706 237.021 142.752 237.029 142.801C237.036 142.849 237.033 142.899 237.02 142.946C237.007 142.993 236.983 143.037 236.951 143.074C236.919 143.112 236.88 143.142 236.835 143.163L235.267 143.894C235.222 143.914 235.174 143.925 235.125 143.926C235.075 143.926 235.026 143.916 234.982 143.896Z" fill="#6C63FF"/>
<path d="M240.719 143.078L238.99 144.297C238.968 144.313 238.942 144.322 238.914 144.322C238.887 144.322 238.86 144.313 238.838 144.297L238.371 143.948C238.355 143.937 238.343 143.922 238.333 143.905C238.324 143.888 238.319 143.869 238.318 143.85C238.318 143.831 238.321 143.812 238.329 143.795C238.336 143.777 238.348 143.761 238.362 143.749L239.693 142.567C239.71 142.552 239.732 142.542 239.754 142.538C239.777 142.533 239.801 142.535 239.823 142.542L240.688 142.851C240.711 142.859 240.73 142.873 240.745 142.892C240.76 142.91 240.769 142.932 240.773 142.955C240.776 142.979 240.772 143.003 240.763 143.024C240.754 143.046 240.739 143.065 240.719 143.078Z" fill="#3F3D56"/>
<path d="M240.579 142.963C240.583 142.951 240.582 142.939 240.577 142.928C240.572 142.917 240.563 142.908 240.552 142.904L239.772 142.626C239.764 142.623 239.756 142.622 239.748 142.624C239.74 142.625 239.732 142.629 239.726 142.634L238.526 143.7L238.519 143.707C238.516 143.712 238.513 143.717 238.512 143.723C238.511 143.728 238.51 143.734 238.511 143.74C238.512 143.746 238.514 143.751 238.518 143.756C238.521 143.761 238.525 143.766 238.529 143.769L238.95 144.083C238.958 144.089 238.967 144.092 238.977 144.092C238.987 144.092 238.996 144.089 239.004 144.083L240.562 142.984C240.57 142.979 240.575 142.971 240.579 142.963Z" fill="white"/>
<path d="M234.418 161.248H235.29L235.706 157.897H234.418V161.248Z" fill="#A0616A"/>
<path d="M234.195 160.964L235.914 160.964H235.914C236.058 160.964 236.2 160.993 236.333 161.047C236.466 161.102 236.586 161.182 236.688 161.284C236.79 161.385 236.87 161.505 236.926 161.637C236.981 161.77 237.009 161.912 237.009 162.055V162.09L234.195 162.09L234.195 160.964Z" fill="#2F2E41"/>
<path d="M231.5 161.248H232.372L232.787 157.897H231.5V161.248Z" fill="#A0616A"/>
<path d="M231.277 160.964L232.996 160.964H232.996C233.14 160.964 233.282 160.993 233.415 161.047C233.548 161.102 233.668 161.182 233.77 161.284C233.872 161.385 233.953 161.505 234.008 161.637C234.063 161.77 234.091 161.912 234.091 162.055V162.09L231.277 162.09L231.277 160.964Z" fill="#2F2E41"/>
<path d="M231.315 160.224C231.255 160.156 231.221 160.069 231.22 159.979C231.012 157.848 231.578 146.648 232.886 145.691L232.894 145.683L236.722 145.025L236.793 145.096C236.798 145.195 237.494 155.013 235.572 160.023C235.549 160.083 235.508 160.134 235.455 160.17C235.402 160.207 235.339 160.226 235.274 160.226H234.51C234.466 160.226 234.422 160.217 234.382 160.199C234.341 160.182 234.305 160.156 234.275 160.123C234.245 160.091 234.222 160.053 234.207 160.011C234.193 159.97 234.187 159.926 234.191 159.882L234.809 150.5C234.812 150.473 234.803 150.447 234.786 150.425C234.77 150.404 234.745 150.39 234.719 150.386C234.692 150.383 234.664 150.389 234.642 150.404C234.62 150.42 234.604 150.443 234.599 150.469L232.856 159.991C232.841 160.058 232.805 160.119 232.753 160.164C232.701 160.209 232.636 160.236 232.567 160.241L231.564 160.315C231.556 160.316 231.548 160.316 231.54 160.316C231.456 160.316 231.375 160.283 231.315 160.224Z" fill="#2F2E41"/>
<path d="M236.351 139.282C237.317 139.282 238.099 138.503 238.099 137.541C238.099 136.58 237.317 135.801 236.351 135.801C235.386 135.801 234.603 136.58 234.603 137.541C234.603 138.503 235.386 139.282 236.351 139.282Z" fill="#A0616A"/>
<path d="M232.141 147.215C232.067 147.141 232.024 147.041 232.022 146.936L232.736 143.608C232.166 141.199 232.924 140.747 233.78 140.29L233.775 140.288L234.132 139.325C234.143 139.282 234.164 139.242 234.192 139.208C234.221 139.174 234.257 139.147 234.297 139.128C234.337 139.11 234.381 139.1 234.426 139.101C234.47 139.101 234.514 139.111 234.554 139.13L236.376 140.094C236.458 140.14 236.519 140.216 236.545 140.306C236.576 140.401 236.574 140.504 236.539 140.598L236.405 140.961C236.753 141.424 237.291 143.254 236.721 143.962L237.151 146.324C237.161 146.411 237.139 146.498 237.09 146.571C237.041 146.644 236.969 146.697 236.884 146.721L232.395 147.295C232.378 147.299 232.36 147.3 232.342 147.3C232.266 147.299 232.194 147.269 232.141 147.215Z" fill="#1F4C6B"/>
<path d="M238.677 143.399C238.648 143.426 238.621 143.455 238.597 143.486L235.076 143.244L234.698 142.478L233.462 142.894L233.998 144.316C234.042 144.43 234.121 144.528 234.225 144.594C234.329 144.66 234.451 144.691 234.574 144.682L238.578 144.379C238.667 144.502 238.791 144.595 238.934 144.645C239.077 144.696 239.232 144.702 239.379 144.663C239.525 144.624 239.656 144.541 239.754 144.426C239.852 144.311 239.913 144.169 239.928 144.018C239.943 143.868 239.912 143.717 239.839 143.584C239.765 143.452 239.653 143.345 239.517 143.278C239.381 143.211 239.228 143.187 239.078 143.208C238.928 143.23 238.788 143.297 238.677 143.399V143.399Z" fill="#A0616A"/>
<path d="M234.945 143.256L233.41 143.765C233.366 143.779 233.32 143.784 233.274 143.779C233.228 143.774 233.184 143.76 233.145 143.736C233.105 143.713 233.071 143.681 233.045 143.643C233.019 143.606 233.001 143.563 232.993 143.518L232.713 141.936C232.64 141.713 232.659 141.471 232.765 141.261C232.871 141.052 233.057 140.893 233.28 140.82C233.504 140.746 233.748 140.764 233.958 140.87C234.169 140.975 234.329 141.159 234.403 141.382L235.129 142.81C235.15 142.851 235.162 142.895 235.163 142.941C235.165 142.987 235.157 143.033 235.14 143.075C235.122 143.117 235.096 143.155 235.062 143.187C235.028 143.218 234.988 143.242 234.945 143.256Z" fill="#1F4C6B"/>
<path d="M235.369 136.167C236.155 136.167 236.793 135.533 236.793 134.75C236.793 133.967 236.155 133.333 235.369 133.333C234.583 133.333 233.946 133.967 233.946 134.75C233.946 135.533 234.583 136.167 235.369 136.167Z" fill="#2F2E41"/>
<path d="M238.006 137.757C238.144 137.784 238.286 137.772 238.418 137.722C238.485 137.684 238.542 137.631 238.584 137.568C238.627 137.504 238.654 137.431 238.662 137.355C238.928 135.6 237.429 135.744 237.252 135.668C237.14 135.603 237.035 135.527 236.939 135.441C236.689 135.303 236.405 135.241 236.12 135.261C235.783 135.23 235.444 135.272 235.125 135.383C234.847 135.512 234.616 135.724 234.464 135.989C234.313 136.254 234.203 136.539 234.136 136.835C234.031 137.171 234.012 137.527 234.08 137.872C234.153 138.129 234.305 138.357 234.514 138.525C234.724 138.692 234.981 138.789 235.249 138.804C235.206 138.598 235.232 138.383 235.324 138.193C235.416 138.003 235.568 137.849 235.757 137.754C236.058 137.606 236.4 137.566 236.726 137.639C236.938 137.681 237.153 137.708 237.369 137.718C237.581 137.726 237.836 137.739 238.006 137.757Z" fill="#2F2E41"/>
<path d="M374.813 161.594C374.815 159.735 375.558 157.952 376.879 156.638C378.2 155.324 379.991 154.585 381.858 154.585C383.725 154.585 385.516 155.324 386.837 156.638C388.158 157.952 388.901 159.735 388.902 161.594" fill="#F2F2F2"/>
<path d="M381.858 161.594C381.807 161.594 381.759 161.574 381.723 161.539C381.688 161.503 381.667 161.455 381.667 161.405V157.708C381.667 157.658 381.688 157.61 381.723 157.574C381.759 157.539 381.807 157.519 381.858 157.519C381.908 157.519 381.957 157.539 381.993 157.574C382.028 157.61 382.048 157.658 382.048 157.708V161.405C382.048 161.455 382.028 161.503 381.992 161.539C381.957 161.574 381.908 161.594 381.858 161.594Z" fill="#CCCCCC"/>
<path d="M381.858 160.324C381.812 160.324 381.768 160.308 381.734 160.278L379.449 158.326C379.43 158.31 379.414 158.29 379.402 158.268C379.391 158.245 379.384 158.221 379.382 158.196C379.38 158.171 379.383 158.146 379.391 158.122C379.398 158.098 379.411 158.076 379.427 158.057C379.444 158.038 379.464 158.023 379.486 158.011C379.509 158 379.533 157.993 379.558 157.992C379.583 157.99 379.608 157.993 379.632 158.001C379.656 158.009 379.678 158.022 379.697 158.038L381.982 159.99C382.011 160.016 382.032 160.049 382.042 160.087C382.052 160.124 382.05 160.164 382.036 160.2C382.023 160.236 381.998 160.268 381.966 160.29C381.934 160.312 381.896 160.324 381.858 160.324L381.858 160.324Z" fill="#CCCCCC"/>
<path d="M396.518 161.594C396.519 159.735 397.262 157.952 398.583 156.638C399.904 155.324 401.695 154.585 403.562 154.585C405.429 154.585 407.22 155.324 408.541 156.638C409.862 157.952 410.605 159.735 410.606 161.594" fill="#F2F2F2"/>
<path d="M403.562 161.594C403.511 161.594 403.463 161.574 403.427 161.539C403.392 161.503 403.372 161.455 403.372 161.405V157.708C403.372 157.658 403.392 157.61 403.427 157.574C403.463 157.539 403.511 157.519 403.562 157.519C403.612 157.519 403.661 157.539 403.697 157.574C403.732 157.61 403.752 157.658 403.752 157.708V161.405C403.752 161.455 403.732 161.503 403.697 161.539C403.661 161.574 403.612 161.594 403.562 161.594Z" fill="#CCCCCC"/>
<path d="M403.562 160.324C403.516 160.324 403.472 160.308 403.438 160.278L401.153 158.326C401.134 158.31 401.118 158.29 401.107 158.268C401.095 158.245 401.088 158.221 401.086 158.196C401.084 158.171 401.087 158.146 401.095 158.122C401.103 158.098 401.115 158.076 401.131 158.057C401.148 158.038 401.168 158.023 401.19 158.011C401.213 158 401.237 157.993 401.262 157.992C401.287 157.99 401.313 157.993 401.336 158.001C401.36 158.009 401.382 158.022 401.401 158.038L403.686 159.991C403.715 160.016 403.737 160.049 403.746 160.087C403.756 160.124 403.754 160.164 403.741 160.2C403.727 160.237 403.703 160.268 403.671 160.29C403.639 160.312 403.601 160.324 403.562 160.324V160.324Z" fill="#CCCCCC"/>
</g>
<defs>
<clipPath id="clip0_13_104">
<rect width="430" height="184" fill="white"/>
</clipPath>
</defs>
</svg>
